<?xml version="1.0" encoding="utf-8"?>
<!-- Generator: Adobe Illustrator 16.2.1, SVG Export Plug-In . SVG Version: 6.00 Build 0)  -->
<!DOCTYPE svg PUBLIC "-//W3C//DTD SVG 1.1//EN" "http://www.w3.org/Graphics/SVG/1.1/DTD/svg11.dtd" [
	<!ENTITY st0 "fill:#AA4BBB;">
	<!ENTITY st1 "fill:#AE5DAB;">
	<!ENTITY st2 "fill:#E0F3C3;">
	<!ENTITY st3 "fill:#E3408B;">
	<!ENTITY st4 "fill:#E44FB7;">
	<!ENTITY st5 "fill:#E5A6E7;">
	<!ENTITY st6 "fill:#4D4D4D;">
	<!ENTITY st7 "fill:#E8EF53;">
	<!ENTITY st8 "fill:#E8F2DC;">
	<!ENTITY st9 "fill:#B3B3B3;">
	<!ENTITY st10 "fill:#8BDAC9;">
	<!ENTITY st11 "fill:#8C62AD;">
	<!ENTITY st12 "fill:#F0DAEB;">
	<!ENTITY st13 "fill:#F2555B;">
	<!ENTITY st14 "fill:#F2F3EB;">
	<!ENTITY st15 "fill:#F68D8B;">
	<!ENTITY st16 "fill:#F6F7C7;">
	<!ENTITY st17 "fill:#F798BB;">
	<!ENTITY st18 "fill:#F8CDE8;">
	<!ENTITY st19 "fill:#F8F158;">
	<!ENTITY st20 "fill:#F8F7DF;">
	<!ENTITY st21 "fill:#F98A3F;">
	<!ENTITY st22 "fill:#F9AE56;">
	<!ENTITY st23 "fill:#5FC0E9;">
	<!ENTITY st24 "fill:#FAEAEC;">
	<!ENTITY st25 "fill:#FBF3EC;">
	<!ENTITY st26 "fill:#FBF7CC;">
	<!ENTITY st27 "fill:#FBF8EC;">
	<!ENTITY st28 "fill:#FCDC93;">
	<!ENTITY st29 "fill:#FCEF67;">
	<!ENTITY st30 "fill:#FCF8E2;">
	<!ENTITY st31 "fill:#FDDB47;">
	<!ENTITY st32 "fill:#FDE0C1;">
	<!ENTITY st33 "fill:#FDE43D;">
	<!ENTITY st34 "fill:#FDEFEA;">
	<!ENTITY st35 "fill:#FDF0A6;">
	<!ENTITY st36 "fill:#FDF1CC;">
	<!ENTITY st37 "fill:#FDF259;">
	<!ENTITY st38 "fill:#FDF9EE;">
	<!ENTITY st39 "fill:#CBD7E8;">
	<!ENTITY st40 "fill:#72A1DE;">
	<!ENTITY st41 "fill:#A6D6DB;">
	<!ENTITY st42 "fill:#A9A1E7;">
	<!ENTITY st43 "fill:#A9D46F;">
	<!ENTITY st44 "fill:#404040;">
]>
<svg version="1.1" id="Layer_1" xmlns="http://www.w3.org/2000/svg" xmlns:xlink="http://www.w3.org/1999/xlink" x="0px" y="0px"
	 width="300px" height="80px" viewBox="0 0 300 80" style="enable-background:new 0 0 300 80;" xml:space="preserve">
<g>
	<g>
		<path style="&st6;" d="M86.584,64.171c0-1.344-0.023-2.472-0.096-3.48h2.544l0.12,1.729h0.072c0.576-0.912,1.632-1.992,3.6-1.992
			c1.536,0,2.736,0.864,3.241,2.16h0.048c0.408-0.647,0.888-1.128,1.439-1.464c0.648-0.456,1.393-0.696,2.353-0.696
			c1.944,0,3.912,1.32,3.912,5.064v6.889h-2.88v-6.457c0-1.943-0.672-3.096-2.088-3.096c-1.009,0-1.753,0.72-2.064,1.56
			c-0.072,0.288-0.145,0.648-0.145,0.984v7.009h-2.88v-6.769c0-1.632-0.648-2.784-2.017-2.784c-1.104,0-1.848,0.864-2.111,1.68
			c-0.12,0.288-0.168,0.624-0.168,0.96v6.913h-2.881V64.171z"/>
		<path style="&st6;" d="M108.425,60.69l2.112,6.265c0.239,0.721,0.479,1.608,0.647,2.28h0.072c0.192-0.672,0.408-1.536,0.624-2.304
			l1.824-6.241h3.168l-2.928,7.969c-1.608,4.369-2.688,6.312-4.081,7.513c-1.151,1.032-2.352,1.416-3.096,1.513l-0.672-2.496
			c0.504-0.12,1.128-0.385,1.728-0.816c0.553-0.36,1.2-1.056,1.608-1.849c0.12-0.216,0.192-0.384,0.192-0.527
			c0-0.12-0.024-0.288-0.168-0.576l-4.272-10.729H108.425z"/>
	</g>
	<g>
		<path style="&st44;" d="M118.6,69.164c0.96,0.552,2.4,1.031,3.913,1.031c1.896,0,2.952-0.888,2.952-2.208
			c0-1.224-0.816-1.944-2.881-2.688c-2.664-0.96-4.368-2.376-4.368-4.704c0-2.64,2.208-4.656,5.713-4.656
			c1.752,0,3.048,0.384,3.888,0.816l-0.72,2.376c-0.576-0.312-1.704-0.769-3.216-0.769c-1.873,0-2.688,1.009-2.688,1.944
			c0,1.248,0.936,1.824,3.096,2.664c2.809,1.057,4.177,2.473,4.177,4.801c0,2.592-1.968,4.872-6.145,4.872
			c-1.704,0-3.48-0.504-4.368-1.032L118.6,69.164z"/>
		<path style="&st44;" d="M142.265,66.428c0,4.296-3.024,6.216-6.001,6.216c-3.312,0-5.856-2.28-5.856-6.024
			c0-3.84,2.521-6.192,6.049-6.192C139.937,60.427,142.265,62.875,142.265,66.428z M133.456,66.548c0,2.256,1.104,3.96,2.904,3.96
			c1.68,0,2.855-1.656,2.855-4.009c0-1.824-0.815-3.912-2.832-3.912C134.296,62.587,133.456,64.604,133.456,66.548z"/>
		<path style="&st44;" d="M153.28,72.02c-0.624,0.288-1.848,0.624-3.312,0.624c-3.648,0-6.024-2.352-6.024-5.977
			c0-3.504,2.4-6.24,6.505-6.24c1.08,0,2.185,0.24,2.856,0.552l-0.528,2.209c-0.48-0.217-1.176-0.456-2.232-0.456
			c-2.256,0-3.601,1.655-3.576,3.792c0,2.4,1.561,3.769,3.576,3.769c1.032,0,1.752-0.216,2.328-0.456L153.28,72.02z"/>
		<path style="&st44;" d="M158.607,57.427c0,0.888-0.648,1.584-1.681,1.584c-0.983,0-1.632-0.696-1.632-1.584
			c0-0.912,0.672-1.608,1.656-1.608C157.959,55.818,158.583,56.515,158.607,57.427z M155.463,72.38V60.69h2.977V72.38H155.463z"/>
		<path style="&st44;" d="M163.695,67.363c0.072,2.112,1.729,3.024,3.601,3.024c1.368,0,2.353-0.192,3.24-0.528l0.433,2.04
			c-1.009,0.408-2.4,0.744-4.081,0.744c-3.792,0-6.024-2.352-6.024-5.928c0-3.24,1.969-6.289,5.713-6.289
			c3.816,0,5.04,3.12,5.04,5.688c0,0.552-0.048,0.984-0.096,1.248H163.695z M168.832,65.299c0.024-1.08-0.456-2.855-2.424-2.855
			c-1.824,0-2.593,1.656-2.713,2.855H168.832z"/>
		<path style="&st44;" d="M177.376,57.69v3h2.808v2.209h-2.808v5.16c0,1.416,0.384,2.16,1.512,2.16c0.552,0,0.816-0.048,1.152-0.144
			l0.048,2.256c-0.432,0.168-1.2,0.312-2.136,0.312c-1.08,0-1.992-0.384-2.545-0.983c-0.624-0.673-0.912-1.729-0.912-3.265v-5.496
			h-1.68V60.69h1.68v-2.16L177.376,57.69z"/>
		<path style="&st44;" d="M184.407,60.69l2.112,6.265c0.239,0.721,0.479,1.608,0.647,2.28h0.072
			c0.192-0.672,0.408-1.536,0.624-2.304l1.824-6.241h3.168l-2.928,7.969c-1.608,4.369-2.688,6.312-4.081,7.513
			c-1.151,1.032-2.352,1.416-3.096,1.513l-0.672-2.496c0.504-0.12,1.128-0.385,1.728-0.816c0.553-0.36,1.2-1.056,1.608-1.849
			c0.12-0.216,0.192-0.384,0.192-0.527c0-0.12-0.024-0.288-0.168-0.576l-4.272-10.729H184.407z"/>
	</g>
	<g>
		<path style="&st9;" d="M206.663,71.983c-0.576,0.288-1.729,0.595-3.205,0.595c-3.421,0-5.995-2.179-5.995-6.158
			c0-3.799,2.574-6.374,6.338-6.374c1.512,0,2.467,0.324,2.881,0.54l-0.378,1.279c-0.595-0.289-1.44-0.505-2.449-0.505
			c-2.845,0-4.735,1.818-4.735,5.006c0,2.971,1.711,4.879,4.663,4.879c0.954,0,1.927-0.197,2.557-0.504L206.663,71.983z"/>
		<path style="&st9;" d="M216.258,67.95c0,3.224-2.233,4.628-4.34,4.628c-2.358,0-4.177-1.729-4.177-4.483
			c0-2.917,1.908-4.628,4.321-4.628C214.564,63.467,216.258,65.286,216.258,67.95z M209.344,68.041c0,1.908,1.098,3.349,2.646,3.349
			c1.513,0,2.646-1.423,2.646-3.385c0-1.477-0.738-3.35-2.61-3.35C210.153,64.655,209.344,66.384,209.344,68.041z"/>
		<path style="&st9;" d="M218.253,66.024c0-0.9-0.019-1.639-0.072-2.359h1.387l0.072,1.404h0.054
			c0.486-0.828,1.296-1.603,2.736-1.603c1.188,0,2.089,0.721,2.467,1.747h0.036c0.271-0.486,0.612-0.864,0.973-1.135
			c0.522-0.396,1.099-0.612,1.927-0.612c1.152,0,2.862,0.757,2.862,3.781v5.132h-1.548v-4.934c0-1.675-0.612-2.683-1.891-2.683
			c-0.9,0-1.603,0.666-1.873,1.44c-0.072,0.216-0.126,0.504-0.126,0.792v5.384h-1.548v-5.222c0-1.387-0.612-2.395-1.819-2.395
			c-0.99,0-1.71,0.792-1.962,1.584c-0.091,0.234-0.126,0.505-0.126,0.774v5.258h-1.549V66.024z"/>
		<path style="&st9;" d="M233.265,66.024c0-0.9-0.019-1.639-0.072-2.359h1.387l0.072,1.404h0.054
			c0.486-0.828,1.296-1.603,2.736-1.603c1.188,0,2.089,0.721,2.467,1.747h0.036c0.271-0.486,0.612-0.864,0.973-1.135
			c0.522-0.396,1.099-0.612,1.927-0.612c1.152,0,2.862,0.757,2.862,3.781v5.132h-1.548v-4.934c0-1.675-0.612-2.683-1.891-2.683
			c-0.9,0-1.603,0.666-1.873,1.44c-0.072,0.216-0.126,0.504-0.126,0.792v5.384h-1.548v-5.222c0-1.387-0.612-2.395-1.819-2.395
			c-0.99,0-1.71,0.792-1.962,1.584c-0.091,0.234-0.126,0.505-0.126,0.774v5.258h-1.549V66.024z"/>
		<path style="&st9;" d="M249.158,68.311c0.036,2.143,1.404,3.025,2.989,3.025c1.135,0,1.818-0.198,2.413-0.45l0.27,1.134
			c-0.558,0.252-1.513,0.559-2.898,0.559c-2.683,0-4.285-1.783-4.285-4.411c0-2.629,1.548-4.7,4.087-4.7
			c2.845,0,3.601,2.503,3.601,4.105c0,0.324-0.035,0.576-0.054,0.738H249.158z M253.804,67.177c0.019-1.009-0.414-2.575-2.196-2.575
			c-1.603,0-2.305,1.477-2.431,2.575H253.804z"/>
		<path style="&st9;" d="M257.295,66.384c0-1.026-0.018-1.908-0.072-2.719h1.387l0.054,1.711h0.072
			c0.396-1.171,1.351-1.909,2.413-1.909c0.18,0,0.306,0.019,0.449,0.055v1.494c-0.161-0.036-0.323-0.054-0.54-0.054
			c-1.116,0-1.908,0.846-2.124,2.034c-0.036,0.216-0.072,0.469-0.072,0.738v4.646h-1.566V66.384z"/>
		<path style="&st9;" d="M269.23,72.056c-0.414,0.216-1.332,0.522-2.503,0.522c-2.629,0-4.339-1.801-4.339-4.466
			c0-2.683,1.836-4.627,4.681-4.627c0.937,0,1.765,0.234,2.197,0.45l-0.36,1.225c-0.378-0.217-0.973-0.414-1.837-0.414
			c-1.998,0-3.078,1.476-3.078,3.295c0,2.017,1.296,3.259,3.024,3.259c0.9,0,1.494-0.234,1.944-0.433L269.23,72.056z"/>
		<path style="&st9;" d="M272.847,61.217c0.018,0.54-0.378,0.972-1.009,0.972c-0.558,0-0.954-0.432-0.954-0.972
			c0-0.559,0.414-0.99,0.99-0.99C272.469,60.227,272.847,60.658,272.847,61.217z M271.082,72.38v-8.715h1.584v8.715H271.082z"/>
		<path style="&st9;" d="M281.416,70.291c0,0.757,0.036,1.495,0.144,2.089h-1.44l-0.126-1.099h-0.054
			c-0.486,0.685-1.423,1.297-2.665,1.297c-1.765,0-2.665-1.242-2.665-2.503c0-2.106,1.873-3.259,5.24-3.241v-0.18
			c0-0.721-0.198-2.017-1.98-2.017c-0.811,0-1.657,0.252-2.27,0.648l-0.359-1.045c0.72-0.468,1.764-0.774,2.862-0.774
			c2.665,0,3.313,1.819,3.313,3.565V70.291z M279.885,67.933c-1.729-0.036-3.69,0.271-3.69,1.963c0,1.026,0.684,1.512,1.494,1.512
			c1.135,0,1.854-0.72,2.106-1.458c0.055-0.162,0.09-0.342,0.09-0.504V67.933z"/>
		<path style="&st9;" d="M283.97,59.596h1.584V72.38h-1.584V59.596z"/>
	</g>
	<path style="&st37;" d="M75.032,24.661c0.621,2.289,0.954,4.696,0.958,7.181c0.004,2.298-0.273,4.53-0.799,6.666
		c1.03,4.379,0.979,8.958-0.154,13.317c2.286-4.021,3.588-8.671,3.58-13.622C78.607,33.278,77.305,28.657,75.032,24.661"/>
	<path style="&st13;" d="M41.791,1.552c-0.017,0-0.034,0-0.051,0C31.719,1.57,22.952,6.931,18.138,14.944
		c3.633-2.239,7.823-3.661,12.318-4.01c4.812-4.123,11.062-6.619,17.896-6.631c0.016,0,0.033,0,0.049,0
		c2.503,0,4.931,0.334,7.238,0.96C51.568,2.903,46.838,1.552,41.791,1.552"/>
	<path style="&st22;" d="M55.639,5.264c3.943,2.288,7.267,5.522,9.659,9.396c4.036,2.444,7.398,5.893,9.734,10.001
		C72.478,15.236,65.052,7.819,55.639,5.264"/>
	<path style="&st33;" d="M65.297,14.66c2.23,3.612,3.651,7.779,4.008,12.249c2.941,3.439,4.904,7.428,5.885,11.599
		c0.526-2.136,0.803-4.368,0.799-6.666c-0.004-2.484-0.337-4.892-0.958-7.181C72.695,20.553,69.333,17.104,65.297,14.66"/>
	<path style="&st21;" d="M48.401,4.304c-0.016,0-0.033,0-0.049,0c-6.834,0.012-13.084,2.508-17.896,6.631
		c0.7-0.054,1.408-0.083,2.121-0.084c0.016,0,0.034,0,0.05,0c3.131,0,6.143,0.523,8.95,1.487c2.928-1.067,6.088-1.651,9.386-1.657
		c0.017,0,0.034,0,0.05,0c5.224,0,10.114,1.453,14.285,3.979c-2.392-3.874-5.715-7.108-9.659-9.396
		C53.332,4.638,50.904,4.304,48.401,4.304"/>
	<path style="&st31;" d="M51.012,10.681c-0.017,0-0.034,0-0.05,0c-3.297,0.006-6.458,0.59-9.386,1.657
		c3.263,1.12,6.25,2.835,8.833,5.016c6.339,0.473,12.546,3.121,17.407,7.947c0.521,0.521,1.017,1.058,1.488,1.609
		c-0.357-4.47-1.777-8.637-4.008-12.249C61.126,12.134,56.236,10.681,51.012,10.681"/>
	<path style="&st43;" d="M75.037,51.825c-2.29,4.029-5.566,7.429-9.5,9.867c-2.406,4.025-5.809,7.39-9.868,9.748
		c4.476-1.224,8.703-3.59,12.217-7.099C71.463,60.74,73.847,56.404,75.037,51.825"/>
	<path style="&st7;" d="M75.19,38.508c-1.049,4.257-3.088,8.127-5.857,11.35c-0.353,4.298-1.693,8.318-3.796,11.835
		c3.933-2.438,7.209-5.838,9.5-9.867C76.169,47.466,76.221,42.887,75.19,38.508"/>
	<path style="&st19;" d="M69.305,26.909c0.058,0.72,0.087,1.448,0.089,2.183c0.006,3.229-0.545,6.332-1.562,9.215
		c1.028,2.882,1.589,5.983,1.595,9.214c0.001,0.787-0.03,1.566-0.094,2.337c2.769-3.223,4.808-7.093,5.857-11.35
		C74.209,34.337,72.247,30.349,69.305,26.909"/>
	<path style="&st29;" d="M50.41,17.353c2.225,1.878,4.148,4.101,5.688,6.587c5.396,3.27,9.584,8.338,11.734,14.366
		c1.017-2.883,1.568-5.985,1.562-9.215c-0.001-0.735-0.031-1.463-0.089-2.183c-0.471-0.551-0.967-1.087-1.488-1.609
		C62.956,20.474,56.749,17.826,50.41,17.353"/>
	<path style="&st23;" d="M27.925,71.399c4.082,2.391,8.831,3.761,13.896,3.761c0.016,0,0.033,0,0.049,0
		c5.03-0.009,9.743-1.363,13.799-3.72c-2.396,0.655-4.863,0.982-7.331,0.982c-2.232,0-4.463-0.268-6.643-0.804
		c-2.121,0.507-4.29,0.761-6.458,0.761C32.776,72.38,30.314,72.053,27.925,71.399"/>
	<path style="&st10;" d="M65.537,61.692c-3.633,2.253-7.826,3.688-12.318,4.045c-3.416,2.931-7.378,4.891-11.523,5.882
		c2.179,0.536,4.41,0.804,6.643,0.804c2.467,0,4.935-0.327,7.331-0.982C59.729,69.082,63.131,65.718,65.537,61.692"/>
	<path style="&st2;" d="M69.333,49.857c-2.551,2.969-5.723,5.39-9.312,7.061c-1.342,2.751-3.166,5.325-5.471,7.6
		c-0.434,0.424-0.878,0.83-1.332,1.22c4.493-0.356,8.686-1.792,12.318-4.045C67.64,58.176,68.98,54.155,69.333,49.857"/>
	<path style="&st16;" d="M67.832,38.307c-1.15,3.259-2.896,6.237-5.108,8.806c-0.285,3.37-1.187,6.7-2.703,9.806
		c3.589-1.671,6.761-4.092,9.312-7.061c0.063-0.771,0.095-1.55,0.094-2.337C69.421,44.29,68.859,41.188,67.832,38.307"/>
	<path style="&st26;" d="M56.098,23.94c1.381,2.229,2.452,4.669,3.156,7.261c2.778,4.898,3.932,10.458,3.47,15.911
		c2.212-2.568,3.958-5.547,5.108-8.806C65.682,32.278,61.494,27.21,56.098,23.94"/>
	<path style="&st11;" d="M8.659,52.18c1.207,4.356,3.506,8.479,6.904,11.939c3.533,3.609,7.816,6.036,12.362,7.28
		c-3.892-2.279-7.177-5.485-9.551-9.314C14.354,59.664,11.002,56.25,8.659,52.18"/>
	<path style="&st40;" d="M18.374,62.085c2.375,3.829,5.66,7.035,9.551,9.314c2.389,0.653,4.851,0.98,7.313,0.98
		c2.167,0,4.337-0.254,6.458-0.761c-4-0.984-7.825-2.873-11.144-5.665C26.12,65.626,21.979,64.255,18.374,62.085"/>
	<path style="&st41;" d="M42.113,64.354c-2.944,1.079-6.124,1.67-9.439,1.676c-0.016,0-0.033,0-0.049,0
		c-0.697,0-1.39-0.025-2.074-0.076c3.319,2.792,7.144,4.681,11.144,5.665c4.145-0.991,8.107-2.951,11.523-5.882
		c-0.712,0.056-1.433,0.086-2.159,0.087c-0.016,0-0.033,0-0.049,0C47.897,65.824,44.905,65.308,42.113,64.354"/>
	<path style="&st8;" d="M60.021,56.918c-2.911,1.355-6.097,2.217-9.451,2.479c-2.478,2.123-5.335,3.814-8.457,4.958
		c2.792,0.953,5.784,1.47,8.897,1.47c0.016,0,0.033,0,0.049,0c0.727-0.001,1.447-0.031,2.159-0.087
		c0.454-0.39,0.898-0.796,1.332-1.22C56.855,62.243,58.679,59.669,60.021,56.918"/>
	<path style="&st20;" d="M62.724,47.112c-1.839,2.136-4.001,3.988-6.41,5.479c-1.538,2.569-3.482,4.866-5.743,6.805
		c3.354-0.262,6.54-1.123,9.451-2.479C61.537,53.812,62.439,50.482,62.724,47.112"/>
	<path style="&st30;" d="M59.253,31.202c0.622,2.292,0.956,4.701,0.96,7.189c0.009,5.193-1.416,10.052-3.9,14.201
		c2.409-1.491,4.571-3.344,6.41-5.479C63.185,41.659,62.032,36.1,59.253,31.202"/>
	<path style="&st1;" d="M18.138,14.944C10.24,19.812,4.982,28.541,5,38.488c0.009,4.988,1.339,9.661,3.659,13.691
		c-2.392-8.633-0.494-18.184,5.648-25.322C14.662,22.524,16.015,18.477,18.138,14.944"/>
	<path style="&st3;" d="M30.456,10.935c-4.495,0.349-8.685,1.771-12.318,4.01c-2.123,3.533-3.476,7.58-3.83,11.914
		c0.515-0.599,1.061-1.181,1.635-1.743c2.298-2.26,4.893-4.035,7.656-5.325C25.263,16.385,27.607,13.375,30.456,10.935"/>
	<path style="&st15;" d="M32.626,10.851c-0.016,0-0.034,0-0.05,0c-0.713,0.001-1.421,0.03-2.121,0.084
		c-2.849,2.44-5.193,5.451-6.857,8.855c3.02-1.41,6.242-2.24,9.499-2.493c2.482-2.126,5.348-3.819,8.479-4.959
		C38.769,11.374,35.757,10.85,32.626,10.851"/>
	<path style="&st28;" d="M41.576,12.337c-3.13,1.14-5.997,2.833-8.479,4.959c0.714-0.056,1.431-0.083,2.146-0.083
		c2.242,0,4.484,0.272,6.672,0.815c2.109-0.501,4.267-0.752,6.424-0.752c0.69,0,1.381,0.025,2.07,0.077
		C47.827,15.172,44.839,13.457,41.576,12.337"/>
	<path style="&st35;" d="M48.34,17.276c-2.157,0-4.315,0.251-6.424,0.752c2.485,0.617,4.899,1.584,7.167,2.901
		c2.498,0.68,4.853,1.701,7.015,3.011c-1.54-2.486-3.463-4.709-5.688-6.587C49.721,17.301,49.03,17.276,48.34,17.276"/>
	<path style="&st30;" d="M49.083,20.929c2.097,1.217,4.068,2.734,5.849,4.548c1.724,1.755,3.164,3.682,4.322,5.724
		c-0.704-2.592-1.775-5.032-3.156-7.261C53.935,22.63,51.581,21.609,49.083,20.929"/>
	<path style="&st0;" d="M14.308,26.858c-6.143,7.138-8.04,16.689-5.648,25.322c2.343,4.07,5.695,7.484,9.715,9.905
		c-2.608-4.205-4.118-9.162-4.127-14.467c-0.006-3.229,0.546-6.334,1.562-9.219c-1.027-2.879-1.589-5.98-1.595-9.209
		C14.213,28.404,14.245,27.626,14.308,26.858"/>
	<path style="&st4;" d="M23.599,19.79c-2.763,1.29-5.358,3.065-7.656,5.325c-0.575,0.562-1.12,1.145-1.635,1.743
		c-0.062,0.769-0.094,1.546-0.093,2.332c0.006,3.229,0.568,6.331,1.595,9.209c1.148-3.256,2.89-6.234,5.094-8.804
		C21.191,26.102,22.13,22.792,23.599,19.79"/>
	<path style="&st17;" d="M33.098,17.296c-3.257,0.253-6.479,1.083-9.499,2.493c-1.468,3.003-2.407,6.312-2.695,9.806
		c1.857-2.163,4.042-4.036,6.478-5.541C28.915,21.504,30.849,19.222,33.098,17.296"/>
	<path style="&st32;" d="M35.244,17.213c-0.715,0-1.432,0.028-2.146,0.083c-2.249,1.926-4.183,4.208-5.716,6.758
		c2.219-1.37,4.646-2.434,7.222-3.134c2.314-1.326,4.778-2.29,7.312-2.893C39.728,17.485,37.486,17.213,35.244,17.213"/>
	<path style="&st36;" d="M41.916,18.028c-2.534,0.603-4.999,1.566-7.312,2.893c2.286-0.621,4.689-0.954,7.169-0.958
		c0.016,0,0.034,0,0.05,0c2.513,0,4.947,0.336,7.26,0.966C46.815,19.612,44.401,18.646,41.916,18.028"/>
	<path style="&st42;" d="M15.81,38.399c-1.017,2.885-1.568,5.99-1.562,9.219c0.009,5.305,1.519,10.262,4.127,14.467
		c3.605,2.17,7.746,3.541,12.178,3.869c-0.579-0.487-1.142-1.001-1.688-1.543c-4.828-4.836-7.497-11.011-8.005-17.326
		C18.68,44.548,16.956,41.611,15.81,38.399"/>
	<path style="&st5;" d="M20.904,29.595c-2.205,2.569-3.946,5.547-5.094,8.804c1.146,3.212,2.871,6.149,5.049,8.686
		c-0.237-2.942-0.004-5.914,0.697-8.796c-0.484-2.038-0.742-4.164-0.746-6.349C20.809,31.15,20.84,30.368,20.904,29.595"/>
	<path style="&st18;" d="M27.381,24.055c-2.436,1.505-4.621,3.377-6.478,5.541c-0.063,0.773-0.095,1.555-0.094,2.344
		c0.004,2.186,0.262,4.311,0.746,6.349c0.597-2.45,1.533-4.836,2.807-7.081C25.033,28.661,26.058,26.257,27.381,24.055"/>
	<path style="&st34;" d="M34.603,20.921c-2.576,0.7-5.003,1.764-7.222,3.134c-1.324,2.203-2.349,4.606-3.019,7.153
		c1.185-2.086,2.661-4.052,4.432-5.838C30.568,23.595,32.524,22.112,34.603,20.921"/>
	<path style="&st39;" d="M20.858,47.085c0.508,6.315,3.177,12.49,8.005,17.326c0.546,0.542,1.109,1.056,1.688,1.543
		c0.684,0.051,1.376,0.076,2.074,0.076c0.016,0,0.033,0,0.049,0c3.315-0.006,6.495-0.597,9.439-1.676
		c-6.076-2.074-11.198-6.214-14.528-11.58C25.048,51.245,22.778,49.321,20.858,47.085"/>
	<path style="&st14;" d="M27.585,52.774c3.331,5.366,8.453,9.506,14.528,11.58c3.122-1.144,5.979-2.835,8.457-4.958
		c-0.7,0.055-1.407,0.083-2.121,0.084c-0.017,0-0.034,0-0.051,0c-5.055,0-9.793-1.36-13.869-3.734
		C32.061,55.073,29.728,54.064,27.585,52.774"/>
	<path style="&st12;" d="M21.556,38.289c-0.702,2.882-0.934,5.854-0.697,8.796c1.919,2.236,4.189,4.16,6.727,5.689
		c-1.371-2.21-2.438-4.626-3.144-7.193C23.152,43.331,22.171,40.88,21.556,38.289"/>
	<path style="&st25;" d="M24.441,45.581c0.706,2.567,1.773,4.983,3.144,7.193c2.143,1.29,4.476,2.299,6.945,2.972
		C30.34,53.305,26.852,49.792,24.441,45.581"/>
	<path style="&st27;" d="M56.313,52.592c-4.205,2.604-9.163,4.111-14.476,4.121c-0.016,0-0.033,0-0.049,0
		c-2.512,0-4.945-0.336-7.258-0.967c4.075,2.374,8.814,3.734,13.869,3.734c0.017,0,0.034,0,0.051,0
		c0.713-0.001,1.42-0.029,2.121-0.084C52.831,57.458,54.775,55.161,56.313,52.592"/>
	<path style="&st24;" d="M24.362,31.208c-1.274,2.245-2.21,4.631-2.807,7.081c0.615,2.592,1.597,5.042,2.885,7.292
		c-0.638-2.318-0.98-4.76-0.985-7.28C23.452,35.849,23.767,33.472,24.362,31.208"/>
	<path style="&st38;" d="M41.835,50.321c-1.52,0-2.754-1.233-2.757-2.755s1.23-2.762,2.753-2.765c0.002,0,0.003,0,0.005,0
		c1.522,0,2.757,1.235,2.759,2.755c0.003,1.523-1.23,2.762-2.755,2.765C41.839,50.321,41.837,50.321,41.835,50.321 M48.347,47.607
		c-0.704,0-1.408-0.267-1.946-0.801c-1.077-1.079-1.08-2.823-0.007-3.904c0.539-0.54,1.247-0.81,1.955-0.81
		c0.704,0,1.409,0.267,1.947,0.802c1.079,1.078,1.082,2.822,0.007,3.904C49.763,47.337,49.055,47.607,48.347,47.607 M35.24,47.556
		c-0.715,0-1.429-0.275-1.968-0.826c-1.069-1.089-1.05-2.835,0.039-3.9c0.536-0.527,1.233-0.79,1.93-0.79
		c0.714,0,1.428,0.276,1.968,0.826c1.068,1.088,1.049,2.832-0.038,3.904C36.634,47.294,35.937,47.556,35.24,47.556 M32.608,41.198
		c-1.523,0-2.759-1.23-2.762-2.754c-0.002-1.523,1.232-2.761,2.758-2.764c0.002,0,0.004,0,0.005,0c1.52,0,2.756,1.232,2.759,2.754
		c0.003,1.525-1.232,2.761-2.754,2.764C32.611,41.198,32.609,41.198,32.608,41.198 M51.033,41.009c-1.52,0-2.753-1.232-2.755-2.752
		c-0.002-1.524,1.229-2.76,2.751-2.763c0.001,0,0.003,0,0.004,0c1.52,0,2.758,1.231,2.761,2.753
		c0.003,1.521-1.233,2.759-2.755,2.762C51.037,41.009,51.035,41.009,51.033,41.009 M48.401,34.652c-1.522,0-2.757-1.232-2.759-2.754
		c-0.003-1.524,1.23-2.761,2.754-2.764c0.002,0,0.003,0,0.005,0c1.52,0,2.756,1.231,2.758,2.754
		c0.003,1.523-1.232,2.761-2.754,2.764C48.404,34.652,48.402,34.652,48.401,34.652 M41.804,31.89c-1.52,0-2.755-1.232-2.758-2.752
		c-0.002-1.525,1.231-2.761,2.753-2.764c0.002,0,0.004,0,0.005,0c1.522,0,2.757,1.23,2.76,2.754c0.003,1.522-1.23,2.759-2.755,2.762
		C41.807,31.89,41.805,31.89,41.804,31.89 M41.822,19.963c-0.016,0-0.034,0-0.05,0c-2.48,0.004-4.883,0.337-7.169,0.958
		c-2.079,1.191-4.035,2.674-5.809,4.449c-1.771,1.786-3.247,3.751-4.432,5.838c-0.596,2.264-0.911,4.641-0.906,7.094
		c0.004,2.52,0.347,4.961,0.985,7.28c2.411,4.211,5.899,7.724,10.089,10.165c2.313,0.631,4.747,0.967,7.258,0.967
		c0.016,0,0.033,0,0.049,0c5.313-0.01,10.271-1.517,14.476-4.121c2.484-4.149,3.91-9.008,3.9-14.201
		c-0.004-2.488-0.338-4.897-0.96-7.189c-1.158-2.042-2.598-3.969-4.322-5.724c-1.781-1.814-3.752-3.331-5.849-4.548
		C46.77,20.299,44.335,19.963,41.822,19.963"/>
	<path style="&st38;" d="M41.804,26.374c-0.001,0-0.003,0-0.005,0c-1.522,0.003-2.755,1.238-2.753,2.764
		c0.003,1.521,1.238,2.752,2.758,2.752c0.001,0,0.003,0,0.004,0c1.525-0.003,2.758-1.24,2.755-2.762
		C44.561,27.604,43.326,26.374,41.804,26.374"/>
	<path style="&st38;" d="M41.837,44.802c-0.002,0-0.003,0-0.005,0c-1.523,0.003-2.756,1.243-2.753,2.765s1.238,2.755,2.757,2.755
		c0.002,0,0.003,0,0.005,0c1.525-0.003,2.758-1.241,2.755-2.765C44.594,46.037,43.359,44.802,41.837,44.802"/>
	<path style="&st38;" d="M48.401,29.134c-0.002,0-0.003,0-0.005,0c-1.524,0.002-2.757,1.239-2.754,2.764
		c0.002,1.522,1.237,2.754,2.759,2.754c0.001,0,0.003,0,0.004,0c1.522-0.003,2.757-1.24,2.754-2.764
		C51.157,30.366,49.92,29.134,48.401,29.134"/>
	<path style="&st38;" d="M35.241,42.039c-0.697,0-1.394,0.263-1.93,0.79c-1.088,1.065-1.107,2.812-0.039,3.9
		c0.539,0.551,1.253,0.826,1.968,0.826c0.697,0,1.394-0.262,1.931-0.786c1.087-1.072,1.106-2.816,0.038-3.904
		C36.669,42.315,35.955,42.039,35.241,42.039"/>
	<path style="&st38;" d="M51.033,35.494c-0.001,0-0.003,0-0.004,0c-1.522,0.003-2.753,1.239-2.751,2.763
		c0.002,1.52,1.236,2.752,2.755,2.752c0.002,0,0.003,0,0.005,0c1.522-0.003,2.758-1.24,2.755-2.762
		C53.792,36.725,52.553,35.494,51.033,35.494"/>
	<path style="&st38;" d="M32.609,35.681c-0.001,0-0.003,0-0.005,0c-1.525,0.002-2.76,1.24-2.758,2.764
		c0.003,1.523,1.239,2.754,2.762,2.754c0.001,0,0.003,0,0.005,0c1.522-0.003,2.757-1.238,2.754-2.764
		C35.365,36.913,34.128,35.681,32.609,35.681"/>
	<path style="&st38;" d="M48.348,42.093c-0.708,0-1.416,0.27-1.955,0.81c-1.073,1.081-1.07,2.825,0.007,3.904
		c0.539,0.534,1.242,0.801,1.946,0.801c0.708,0,1.416-0.271,1.956-0.809c1.075-1.082,1.072-2.826-0.007-3.904
		C49.757,42.359,49.052,42.093,48.348,42.093"/>
</g>
</svg>
