<?xml version="1.0" encoding="utf-8"?>
<!-- Generator: Adobe Illustrator 13.0.0, SVG Export Plug-In . SVG Version: 6.00 Build 14948)  -->
<!DOCTYPE svg PUBLIC "-//W3C//DTD SVG 1.0//EN" "http://www.w3.org/TR/2001/REC-SVG-20010904/DTD/svg10.dtd" [
	<!ENTITY st0 "fill:none;">
	<!ENTITY st1 "fill:#333333;">
]>
<svg version="1.0" id="Layer_1" xmlns="http://www.w3.org/2000/svg" xmlns:xlink="http://www.w3.org/1999/xlink" x="0px" y="0px"
	 width="80px" height="80px" viewBox="0 0 80 80" style="enable-background:new 0 0 80 80;" xml:space="preserve">
<path style="&st0;" d="M49.312,60.992c2.447-1.121,4.702-2.65,6.65-4.531l-6.65-1.329V60.992z"/>
<path style="&st0;" d="M22.989,56.32c1.754,1.709,3.758,3.156,5.948,4.271v-5.459L22.989,56.32z"/>
<path style="&st0;" d="M32.533,16.887C21.57,20.275,14.572,31.365,16.061,42.706c0.452,3.444,1.695,6.64,3.506,9.442l9.929-12.411
	c0.502-0.629,1.242-0.955,1.988-0.957h0h15.281c0.746,0.001,1.486,0.328,1.988,0.957l10.188,12.734
	c0.061,0.075,0.11,0.156,0.161,0.237c5.237-7.785,5.379-18.264,0.186-26.168C53.574,17.845,42.501,13.807,32.533,16.887z
	 M39.125,36.234c-3.517,0-6.367-2.851-6.367-6.367s2.851-6.367,6.367-6.367c3.516,0,6.367,2.851,6.367,6.367
	S42.641,36.234,39.125,36.234z"/>
<path style="&st1;" d="M60.609,19.131c-5.498-5.697-13.192-8.965-21.109-8.966c-8.999,0.001-17.645,4.238-23.168,11.34
	c-5.597,7.196-7.528,16.815-5.165,25.62c2.297,8.56,8.541,15.772,16.669,19.299c8.376,3.635,18.233,3.102,26.166-1.419
	c7.729-4.404,13.164-12.271,14.499-21.071C69.863,34.95,66.92,25.67,60.609,19.131z M59.103,52.709
	c-0.238,0.354-0.473,0.71-0.732,1.053c-0.732,0.968-1.542,1.864-2.407,2.699c-1.948,1.881-4.203,3.41-6.65,4.531
	c-3.054,1.398-6.398,2.167-9.812,2.174c-3.743-0.006-7.343-0.939-10.562-2.575c-2.19-1.114-4.194-2.562-5.948-4.271
	c-1.291-1.258-2.442-2.653-3.422-4.172c-1.811-2.803-3.054-5.998-3.506-9.442c-1.489-11.341,5.509-22.431,16.472-25.819
	c9.968-3.08,21.041,0.958,26.755,9.654C64.481,34.445,64.34,44.924,59.103,52.709z"/>
<path style="&st1;" d="M36.527,51.951l-4.058,4.058l4.058,4.06l1.354-1.354l-2.706-2.706l2.706-2.704L36.527,51.951z M39.341,33.322
	c4.026,0,7.292-3.265,7.292-7.292c0-4.027-3.266-7.292-7.292-7.292c-4.028,0-7.292,3.265-7.292,7.292
	C32.049,30.057,35.313,33.322,39.341,33.322z M40.586,53.305l2.705,2.704l-2.705,2.706l1.354,1.354l4.059-4.06l-4.059-4.058
	L40.586,53.305z M62.036,51.918L50.368,37.335c-0.574-0.72-1.422-1.094-2.276-1.096H30.59c-0.854,0.001-1.702,0.375-2.278,1.096
	L16.942,51.549c1.123,1.738,2.441,3.336,3.92,4.776l6.812-1.36v6.252c3.687,1.873,7.81,2.942,12.097,2.949
	c3.91-0.008,7.74-0.889,11.238-2.489v-6.712l7.616,1.521c0.99-0.956,1.917-1.982,2.757-3.091c0.298-0.393,0.566-0.8,0.839-1.206
	C62.162,52.098,62.105,52.004,62.036,51.918z M43.291,41.99c0.174,0.088,0.333,0.204,0.44,0.327l3.18,3.709
	c0.111,0.13,0.214,0.314,0.291,0.514h-3.911V41.99z M47.352,48.178l-1.605-0.215c-1.578-0.315-3.116,0.71-3.432,2.287
	c-0.316,1.581,0.708,3.118,2.289,3.433l2.748,0.413v7.326c0,0.37-0.306,0.675-0.679,0.675h-14.88c-0.372,0-0.676-0.305-0.676-0.675
	v-7.294l2.963-0.445c1.579-0.314,2.604-1.852,2.288-3.433c-0.316-1.577-1.853-2.602-3.432-2.287l-1.818,0.363V42.48
	c0-0.372,0.304-0.676,0.676-0.676h10.823v5.41h4.735V48.178z"/>
</svg>
