<?xml version="1.0" encoding="utf-8"?>
<!DOCTYPE svg PUBLIC "-//W3C//DTD SVG 1.0//EN" "http://www.w3.org/TR/2001/REC-SVG-20010904/DTD/svg10.dtd" [
	<!ENTITY st0 "fill:#58595B;">
	<!ENTITY st1 "fill:#333333;">
]>
<svg version="1.0" id="fms-logo" xmlns="http://www.w3.org/2000/svg" xmlns:xlink="http://www.w3.org/1999/xlink" x="0px" y="0px"
	 width="100%" height="100%" viewBox="0 0 80 80" style="enable-background:new 0 0 80 80;" xml:space="preserve">
<path style="&st0;" d="M40.705,10C24.05,10,10.5,23.441,10.5,39.958c0,16.518,13.55,29.961,30.205,29.961
	c16.654,0,30.202-13.443,30.202-29.961C70.907,23.441,57.359,10,40.705,10 M40.705,63.65c-4.241,0-8.222-1.105-11.678-3.031
	l10.771-11.001c0.051-0.05,0.086-0.114,0.134-0.165c0.875,0.219,1.776,0.366,2.717,0.366c6.311,0.017,11.436-5.042,11.455-11.298
	c0.006-0.999-0.163-1.952-0.406-2.883l-6.018,5.935l-6.65-1.428l-1.401-6.609l6.03-5.939c-0.94-0.26-1.916-0.443-2.941-0.445
	c-6.308-0.015-11.438,5.032-11.457,11.295c-0.004,1.331,0.265,2.585,0.686,3.772L21.026,53.365
	c-2.648-3.814-4.206-8.432-4.206-13.406c0-13.063,10.716-23.691,23.885-23.691c13.171,0,23.884,10.627,23.884,23.691
	C64.589,53.025,53.876,63.65,40.705,63.65"/>
<path style="&st1;" d="M40.705,10C24.05,10,10.5,23.441,10.5,39.958c0,16.518,13.55,29.961,30.205,29.961
	c16.654,0,30.202-13.443,30.202-29.961C70.907,23.441,57.359,10,40.705,10 M40.705,63.65c-4.241,0-8.222-1.105-11.678-3.031
	l10.771-11.001c0.051-0.05,0.086-0.114,0.134-0.165c0.875,0.219,1.776,0.366,2.717,0.366c6.311,0.017,11.436-5.042,11.455-11.298
	c0.006-0.999-0.163-1.952-0.406-2.883l-6.018,5.935l-6.65-1.428l-1.401-6.609l6.03-5.939c-0.94-0.26-1.916-0.443-2.941-0.445
	c-6.308-0.015-11.438,5.032-11.457,11.295c-0.004,1.331,0.265,2.585,0.686,3.772L21.026,53.365
	c-2.648-3.814-4.206-8.432-4.206-13.406c0-13.063,10.716-23.691,23.885-23.691c13.171,0,23.884,10.627,23.884,23.691
	C64.589,53.025,53.876,63.65,40.705,63.65"/>
</svg>
