<?xml version="1.0" encoding="utf-8"?>
<!-- Generator: Adobe Illustrator 13.0.0, SVG Export Plug-In . SVG Version: 6.00 Build 14948)  -->
<!DOCTYPE svg PUBLIC "-//W3C//DTD SVG 1.0//EN" "http://www.w3.org/TR/2001/REC-SVG-20010904/DTD/svg10.dtd" [
	<!ENTITY st0 "fill-rule:evenodd;clip-rule:evenodd;fill:#E0E0E0;">
	<!ENTITY st1 "fill:#333333;">
	<!ENTITY st2 "fill-rule:evenodd;clip-rule:evenodd;fill:#333333;">
]>
<svg version="1.0" id="Layer_1" xmlns="http://www.w3.org/2000/svg" xmlns:xlink="http://www.w3.org/1999/xlink" x="0px" y="0px"
	 width="80px" height="80px" viewBox="0 0 80 80" style="enable-background:new 0 0 80 80;" xml:space="preserve">
<g>
	<path style="&st0;" d="M50,31c6,0,10,9,5,15c-5,4-10,1-10,10c0,6-2,8-8,8s-8-6-14-7c-5-1-5-2-5-7c0-4-1-11,4-13c3-1,11,0,14,0
		s6,2,8,1s3-5,5-7H50z"/>
</g>
<path style="&st1;" d="M11.165,40.5c0.002-16.203,13.132-29.334,29.334-29.336l0,0C56.702,11.166,69.832,24.297,69.834,40.5l0,0
	c-0.002,16.201-13.132,29.332-29.335,29.335l0,0C24.296,69.832,11.167,56.701,11.165,40.5L11.165,40.5z M16.834,40.5
	c0.022,13.067,10.595,23.641,23.665,23.665l0,0C53.568,64.141,64.142,53.567,64.164,40.5l0,0
	c-0.022-13.069-10.596-23.643-23.665-23.666l0,0C27.43,16.857,16.857,27.431,16.834,40.5L16.834,40.5z"/>
<g>
	<g>
		<path style="&st2;" d="M34.644,21.983C28.765,21.983,24,26.748,24,32.626s10.644,19.376,10.644,19.376
			s10.644-13.498,10.644-19.376S40.521,21.983,34.644,21.983 M34.644,36.884c-2.352,0-4.258-1.906-4.258-4.258
			c0-2.351,1.906-4.257,4.258-4.257c2.351,0,4.257,1.906,4.257,4.257C38.9,34.978,36.994,36.884,34.644,36.884"/>
	</g>
</g>
</svg>
