<?xml version="1.0" encoding="utf-8"?>
<!DOCTYPE svg PUBLIC "-//W3C//DTD SVG 1.0//EN" "http://www.w3.org/TR/2001/REC-SVG-20010904/DTD/svg10.dtd" [
	<!ENTITY st0 "fill:#B3B3B3;">
	<!ENTITY st1 "fill:#231F20;">
	<!ENTITY st2 "fill:#FFFFFF;">
	<!ENTITY st3 "fill:#0F91C5;">
]>
<svg version="1.0" id="Layer_1" xmlns="http://www.w3.org/2000/svg" xmlns:xlink="http://www.w3.org/1999/xlink" x="0px" y="0px"
	 width="461px" height="62px" viewBox="0 0 461 62" style="enable-background:new 0 0 461 62;" xml:space="preserve">
<g>
	<g>
		<g>
			<polygon style="&st3;" points="438.5,29.312 448.5,12.812 329.5,12.812 339.5,29.312 329.5,45.812 448.5,45.812 			"/>
		</g>
		<g>
			<path style="&st2;" d="M345.309,30.954h2.4v0.648c0,2.353,1.345,3.097,2.664,3.097c1.345,0,2.641-0.792,2.641-3.001v-9.385
				c0-0.359-0.191-0.527-0.527-0.527h-4.152v-2.064h5.544c1.08,0,1.536,0.456,1.536,1.536v10.537c0,3.672-2.568,5.16-5.064,5.16
				s-5.041-1.512-5.041-5.16V30.954z"/>
			<path style="&st2;" d="M364.701,24.234c3.625,0,6.553,2.664,6.553,6.336c0,3.696-2.928,6.385-6.553,6.385
				c-3.623,0-6.527-2.688-6.527-6.385C358.174,26.898,361.078,24.234,364.701,24.234z M364.701,34.938
				c2.305,0,4.177-1.824,4.177-4.368c0-2.521-1.872-4.32-4.177-4.32c-2.279,0-4.152,1.8-4.152,4.32
				C360.549,33.114,362.422,34.938,364.701,34.938z"/>
			<path style="&st2;" d="M374.109,27.042c0-0.359-0.192-0.528-0.528-0.528h-0.984v-1.992h2.28c1.104,0,1.561,0.456,1.561,1.488
				v5.761c0,1.681,0.336,3.024,2.256,3.024c2.496,0,3.961-2.185,3.961-4.585v-5.688h2.328v9.625c0,0.36,0.191,0.528,0.527,0.528
				h0.984v1.992h-2.232c-1.032,0-1.536-0.48-1.536-1.344v-0.456c0-0.385,0.024-0.696,0.024-0.696h-0.049
				c-0.504,1.2-2.064,2.784-4.464,2.784c-2.736,0-4.128-1.44-4.128-4.656V27.042z"/>
			<path style="&st2;" d="M389.061,27.042c0-0.359-0.191-0.528-0.527-0.528h-0.984v-1.992h2.208c1.056,0,1.56,0.433,1.56,1.417
				v0.768c0,0.48-0.047,0.84-0.047,0.84h0.047c0.576-1.775,1.969-3.168,3.841-3.168c0.312,0,0.624,0.048,0.624,0.048v2.305
				c0,0-0.312-0.072-0.696-0.072c-1.487,0-2.856,1.056-3.408,2.856c-0.216,0.695-0.288,1.439-0.288,2.184v4.969h-2.328V27.042z"/>
			<path style="&st2;" d="M398.516,27.042c0-0.359-0.191-0.528-0.527-0.528h-0.984v-1.992h2.232c1.032,0,1.536,0.456,1.536,1.345
				v0.456c0,0.384-0.048,0.696-0.048,0.696h0.048c0.479-1.057,1.92-2.784,4.561-2.784c2.88,0,4.177,1.56,4.177,4.656v5.256
				c0,0.36,0.191,0.528,0.527,0.528h0.984v1.992h-2.305c-1.08,0-1.535-0.456-1.535-1.536v-5.713c0-1.704-0.337-3.048-2.281-3.048
				c-1.871,0-3.359,1.224-3.84,2.977c-0.168,0.479-0.217,1.032-0.217,1.632v5.688h-2.328V27.042z"/>
			<path style="&st2;" d="M419.709,29.106h0.527v-0.12c0-2.136-0.791-2.904-2.688-2.904c-0.576,0-1.992,0.145-1.992,0.937v0.695
				h-2.185v-1.2c0-1.992,3.024-2.279,4.2-2.279c3.937,0,4.992,2.063,4.992,4.752v5.16c0,0.36,0.192,0.528,0.528,0.528h0.984v1.992
				h-2.185c-1.08,0-1.512-0.528-1.512-1.393c0-0.407,0.048-0.72,0.048-0.72h-0.048c0,0-0.96,2.4-3.864,2.4
				c-2.089,0-4.128-1.272-4.128-3.696C412.389,29.347,417.668,29.106,419.709,29.106z M417.021,35.083
				c1.968,0,3.24-2.064,3.24-3.864v-0.408h-0.601c-1.752,0-4.92,0.096-4.92,2.328C414.74,34.123,415.484,35.083,417.021,35.083z"/>
			<path style="&st2;" d="M426.548,22.242c0-0.36-0.192-0.528-0.528-0.528h-0.984v-1.992h2.305c1.08,0,1.536,0.456,1.536,1.536
				v12.889c0,0.36,0.192,0.528,0.528,0.528h0.984v1.992h-2.305c-1.08,0-1.536-0.456-1.536-1.536V22.242z"/>
		</g>
	</g>
	<g>
		<g>
			<path style="&st1;" d="M130.833,10.613h-1.763V8.932h10.14c1.165,0,1.626,0.489,1.626,1.654v1.897h-1.763V11.21
				c0-0.407-0.217-0.597-0.597-0.597h-5.747v7.157h6.913v1.681h-6.913v8.54h-1.897V10.613z"/>
			<path style="&st1;" d="M143.956,16.551c0-0.38-0.218-0.597-0.597-0.597h-1.139v-1.6h1.925c1.166,0,1.654,0.489,1.654,1.654v9.788
				c0,0.407,0.216,0.596,0.596,0.596h1.139v1.599h-1.925c-1.167,0-1.654-0.487-1.654-1.653V16.551z M143.901,8.932h1.789v2.332
				h-1.789V8.932z"/>
			<path style="&st1;" d="M153.525,20.889l-2.955-4.365c-0.326-0.461-0.706-0.569-1.248-0.569h-0.568v-1.6h1.003
				c1.382,0,1.735,0.217,2.548,1.492l1.952,3.036c0.217,0.352,0.46,0.813,0.46,0.813h0.054c0,0,0.245-0.461,0.434-0.813l1.979-3.036
				c0.813-1.248,1.139-1.492,2.549-1.492h0.976v1.6h-0.542c-0.57,0-0.976,0.081-1.274,0.542l-2.955,4.393l4.772,7.102h-2.169
				l-3.334-5.069c-0.217-0.353-0.434-0.759-0.434-0.759h-0.054c0,0-0.217,0.379-0.46,0.759l-3.335,5.069h-2.141L153.525,20.889z"/>
			<path style="&st1;" d="M161.795,26.31h1.002c0.379,0,0.57-0.189,0.597-0.596l1.328-16.782h1.925l5.042,11.089
				c0.462,0.976,0.95,2.25,0.95,2.25h0.054c0,0,0.488-1.273,0.922-2.25l5.042-11.089h1.925l1.329,16.782
				c0.027,0.407,0.217,0.596,0.596,0.596h1.03v1.681h-1.843c-1.166,0-1.572-0.487-1.653-1.653l-0.895-11.576
				c-0.082-1.03-0.082-2.657-0.082-2.657h-0.054c0,0-0.515,1.68-0.976,2.657l-4.528,9.679h-1.708l-4.5-9.679
				c-0.434-0.949-1.003-2.711-1.003-2.711h-0.054c0,0,0,1.681-0.081,2.711l-0.894,11.576c-0.082,1.166-0.489,1.653-1.654,1.653
				h-1.816V26.31z"/>
			<path style="&st1;" d="M187.226,32.03c1.193,0,2.007-0.976,2.521-2.223l0.813-1.871l-4.798-11.36
				c-0.218-0.488-0.461-0.623-0.949-0.623h-0.272v-1.6h0.841c1.22,0,1.599,0.272,2.088,1.491l3.497,8.514
				c0.271,0.677,0.488,1.463,0.488,1.463h0.054c0,0,0.19-0.786,0.46-1.463l3.362-8.514c0.461-1.219,0.867-1.491,2.115-1.491h0.84
				v1.6h-0.271c-0.488,0-0.759,0.135-0.949,0.623l-5.883,14.261c-0.705,1.735-2.088,2.847-3.904,2.847
				c-1.898,0-2.956-1.329-2.956-1.329L185.193,31C185.193,31.027,186.061,32.03,187.226,32.03"/>
			<path style="&st1;" d="M212.195,8.851c0.651,0,1.492,0.027,1.98,0.894c0.162,0.271,0.216,0.569,0.216,0.842
				c0,0.894-0.542,1.409-1.003,1.626c-0.38,0.162-0.786,0.162-1.274,0.162h-3.444v13.176c0,0.352,0,0.677-0.054,1.003
				c-0.163,0.895-0.786,1.654-2.006,1.654c-0.787,0-1.302-0.298-1.6-0.597c-0.624-0.624-0.597-1.409-0.597-2.087V12.375H201
				c-0.678,0-2.25,0-2.25-1.735c0-0.352,0.082-0.677,0.244-0.976c0.488-0.786,1.274-0.786,1.925-0.813H212.195z"/>
			<path style="&st1;" d="M212.582,16.307c0-0.651,0-1.41,0.597-2.007c0.244-0.244,0.678-0.515,1.329-0.515
				c0.353,0,0.65,0.082,0.84,0.189c1.058,0.516,1.058,1.735,1.058,2.197v0.325c0.135-0.434,0.299-0.84,0.542-1.22
				c0.597-1.057,1.681-1.6,2.819-1.6c1.464,0,2.006,0.895,2.006,1.816c0,0.515-0.162,0.977-0.46,1.274
				c-0.407,0.407-0.949,0.488-1.437,0.516c-0.379,0.027-0.732,0.027-1.084,0.081c-2.087,0.353-2.115,2.495-2.142,4.013v4.257
				c0,0.624,0,1.437-0.542,1.978c-0.326,0.353-0.868,0.57-1.437,0.57c-0.163,0-0.407-0.026-0.706-0.109
				c-1.355-0.379-1.383-1.6-1.383-2.439V16.307z"/>
			<path style="&st1;" d="M235.139,25.199c-0.027,1.058-0.055,2.982-1.979,2.982c-1.274,0-1.627-0.949-1.844-1.599
				c-0.299,0.271-0.461,0.46-0.813,0.706c-1.112,0.731-2.332,1.057-3.551,1.057c-3.01,0-4.907-1.789-4.907-4.473
				c0-0.787,0.162-1.329,0.298-1.681c0.379-0.976,1.03-1.464,1.464-1.735c1.084-0.678,2.196-0.895,5.259-1.409
				c1.383-0.244,1.952-0.407,1.952-1.139c0-1.22-1.734-1.22-2.25-1.22c-1.6,0-1.952,0.434-2.359,0.976
				c-0.189,0.217-0.677,0.787-1.464,0.787c-0.868,0-1.761-0.651-1.761-1.681c0-1.301,1.437-3.145,5.91-3.145
				c2.494,0,3.715,0.624,4.473,1.275c1.572,1.328,1.572,3.117,1.572,4.473V25.199z M231.182,21.187
				c-0.57,0.244-0.787,0.326-2.604,0.678c-1.111,0.244-2.521,0.542-2.521,1.871c0,0.949,0.759,1.491,1.87,1.491
				c0.408,0,0.977-0.054,1.654-0.379c1.057-0.488,1.382-1.085,1.6-1.437V21.187z"/>
			<path style="&st1;" d="M250.43,25.687c0,0.596-0.026,1.274-0.433,1.789c-0.244,0.325-0.732,0.705-1.572,0.705
				c-0.679,0-1.167-0.271-1.465-0.569c-0.487-0.542-0.515-1.274-0.515-1.816v-6.019c0-0.542-0.027-1.138-0.298-1.681
				c-0.353-0.731-1.031-1.084-1.817-1.084c-0.542,0-1.057,0.162-1.463,0.46c-0.977,0.759-1.004,1.898-1.004,2.711v5.639
				c-0.027,0.596-0.027,1.248-0.488,1.763c-0.379,0.406-0.922,0.596-1.463,0.596c-0.326,0-0.57-0.054-0.705-0.108
				c-1.221-0.379-1.248-1.545-1.274-2.277v-9.651c0-0.678,0.026-1.383,0.677-1.925c0.244-0.19,0.651-0.407,1.275-0.407
				c0.135,0,0.434,0,0.812,0.136c0.922,0.38,1.058,1.166,1.166,1.681c0.435-0.597,1.491-2.006,3.768-2.006
				c1.329,0,2.197,0.379,2.848,0.813c1.844,1.329,1.951,3.118,1.951,4.365V25.687z"/>
			<path style="&st1;" d="M260.896,17.581c-0.326-0.46-0.786-1.084-2.332-1.084c-1.22,0-1.924,0.488-1.924,1.193
				c0,0.786,0.867,1.057,2.223,1.437c0.46,0.163,0.948,0.298,1.438,0.434c2.06,0.624,4.391,1.301,4.391,4.283
				c0,1.654-1.003,4.5-6.018,4.5c-4.067,0-6.263-1.871-6.263-3.497c0-1.031,0.759-1.817,1.788-1.817c0.949,0,1.383,0.597,1.79,1.22
				c0.243,0.353,0.786,1.166,2.63,1.166c1.273,0,2.006-0.461,2.006-1.301c0-0.813-0.732-1.058-1.383-1.248
				c-0.352-0.109-2.142-0.597-2.521-0.732c-1.437-0.434-3.877-1.193-3.877-3.931c0-0.706,0.137-1.843,1.031-2.847
				c1.193-1.355,3.09-1.762,4.907-1.762c3.415,0,5.368,1.654,5.368,3.009c0,1.003-0.869,1.762-1.845,1.762
				C261.465,18.367,261.141,17.934,260.896,17.581"/>
			<path style="&st1;" d="M266.727,16.388c0.027-0.65,0.027-1.382,0.568-1.979c0.488-0.516,1.086-0.569,1.41-0.569
				c1.572,0,1.844,1.247,1.953,1.762c0.541-0.678,1.544-2.006,3.984-2.006c0.705,0,2.494,0.027,4.012,1.654
				c1.654,1.763,1.871,4.148,1.871,5.504c0,4.69-2.358,7.618-6.208,7.618c-0.651,0-1.192-0.081-1.79-0.298
				c-1.029-0.352-1.464-0.84-1.869-1.301v2.901c0,0.624-0.028,1.355-0.354,1.898c-0.136,0.217-0.569,0.785-1.6,0.785
				c-0.135,0-0.406,0-0.759-0.107c-1.22-0.434-1.22-1.654-1.22-2.359V16.388z M271.471,17.852c-0.543,0.678-0.812,1.654-0.812,3.172
				c0,1.762,0.352,2.467,0.623,2.873c0.516,0.787,1.301,1.167,2.249,1.167c2.44,0,3.01-2.495,3.01-4.284
				c0-2.006-0.731-3.931-2.874-3.931C272.799,16.849,271.986,17.201,271.471,17.852"/>
			<path style="&st1;" d="M289.229,13.595c1.979,0,3.932,0.733,5.26,2.196c1.003,1.085,1.816,2.928,1.816,5.098
				c0,4.445-3.226,7.428-7.32,7.428c-5.068,0-7.211-3.741-7.211-7.428C281.773,16.551,284.837,13.595,289.229,13.595
				 M287.113,17.472c-1.273,1.057-1.273,2.874-1.273,3.389c0,2.549,1.084,4.229,3.199,4.229c1.627,0,2.358-1.139,2.576-1.489
				c0.541-0.896,0.623-1.952,0.623-2.793c0-0.868-0.108-1.735-0.516-2.495c-0.84-1.519-2.304-1.519-2.656-1.519
				C288.605,16.794,287.819,16.849,287.113,17.472"/>
			<path style="&st1;" d="M298.394,16.307c0-0.651,0-1.41,0.596-2.007c0.244-0.244,0.679-0.515,1.329-0.515
				c0.353,0,0.65,0.082,0.841,0.189c1.058,0.516,1.058,1.735,1.058,2.197v0.325c0.135-0.434,0.297-0.84,0.541-1.22
				c0.597-1.057,1.682-1.6,2.82-1.6c1.464,0,2.006,0.895,2.006,1.816c0,0.515-0.162,0.977-0.461,1.274
				c-0.406,0.407-0.949,0.488-1.437,0.516c-0.38,0.027-0.731,0.027-1.085,0.081c-2.088,0.353-2.114,2.495-2.143,4.013v4.257
				c0,0.624,0,1.437-0.54,1.978c-0.327,0.353-0.868,0.57-1.438,0.57c-0.162,0-0.406-0.026-0.704-0.109
				c-1.356-0.379-1.383-1.6-1.383-2.439V16.307z"/>
			<path style="&st1;" d="M313.657,13.894c1.166,0,1.411,0,1.763,0.163c0.244,0.135,0.758,0.515,0.758,1.328
				c0,0.271-0.08,0.515-0.189,0.732c-0.406,0.786-0.948,0.786-2.331,0.786v6.75c0,1.193,0.434,1.329,1.411,1.329
				c1.109,0,1.328,0.84,1.328,1.41c0,1.654-1.871,1.763-2.93,1.763c-3.66,0-3.74-2.142-3.74-3.769v-7.482
				c-0.461,0-0.895,0-1.273-0.189c-0.137-0.082-0.733-0.407-0.733-1.329c0-0.244,0.028-0.487,0.136-0.678
				c0.381-0.813,1.193-0.813,1.871-0.813v-1.925c0.027-0.623,0.027-1.355,0.515-1.897c0.108-0.109,0.543-0.624,1.464-0.624
				c0.271,0,0.543,0.055,0.76,0.136c1.166,0.433,1.166,1.599,1.192,2.413V13.894z"/>
		</g>
		<g>
			<path style="&st0;" d="M134.128,39.197c1.765,0,2.269,1.107,2.269,1.107h0.028c0,0,0-0.112,0-0.225
				c0-0.42,0.224-0.715,0.784-0.715h1.317v1.163h-0.561c-0.182,0-0.308,0.099-0.308,0.28v5.352c0,2.338-1.779,3.234-3.572,3.234
				c-0.854,0-1.723-0.237-2.423-0.588l0.462-1.092c0,0,0.868,0.476,1.933,0.476c1.232,0,2.241-0.546,2.241-1.976v-0.476
				c0-0.224,0.028-0.448,0.028-0.448h-0.028c-0.42,0.687-1.079,1.078-2.115,1.078c-1.961,0-3.166-1.582-3.166-3.627
				C131.018,40.711,132.153,39.197,134.128,39.197z M136.341,42.756c0-1.85-0.911-2.381-2.003-2.381
				c-1.232,0-1.933,0.896-1.933,2.338c0,1.472,0.77,2.48,2.045,2.48C135.431,45.193,136.341,44.604,136.341,42.756z"/>
			<path style="&st0;" d="M143.144,39.197c2.115,0,3.824,1.555,3.824,3.698c0,2.157-1.708,3.726-3.824,3.726s-3.81-1.568-3.81-3.726
				C139.334,40.752,141.029,39.197,143.144,39.197z M143.144,45.445c1.345,0,2.437-1.064,2.437-2.55
				c0-1.471-1.092-2.521-2.437-2.521c-1.331,0-2.423,1.05-2.423,2.521C140.721,44.381,141.813,45.445,143.144,45.445z"/>
			<path style="&st0;" d="M148.546,44.465c0,0,0.84,1.051,2.143,1.051c0.658,0,1.233-0.295,1.233-0.911
				c0-1.274-3.866-1.134-3.866-3.417c0-1.359,1.19-1.99,2.633-1.99c0.854,0,2.325,0.295,2.325,1.373v0.672h-1.219v-0.35
				c0-0.42-0.63-0.602-1.064-0.602c-0.798,0-1.316,0.279-1.316,0.84c0,1.345,3.866,1.051,3.866,3.418
				c0,1.26-1.121,2.072-2.605,2.072c-1.891,0-2.829-1.246-2.829-1.246L148.546,44.465z"/>
			<path style="&st0;" d="M154.902,44.465c0,0,0.84,1.051,2.143,1.051c0.658,0,1.233-0.295,1.233-0.911
				c0-1.274-3.866-1.134-3.866-3.417c0-1.359,1.19-1.99,2.633-1.99c0.854,0,2.325,0.295,2.325,1.373v0.672h-1.219v-0.35
				c0-0.42-0.63-0.602-1.064-0.602c-0.798,0-1.316,0.279-1.316,0.84c0,1.345,3.866,1.051,3.866,3.418
				c0,1.26-1.121,2.072-2.605,2.072c-1.891,0-2.829-1.246-2.829-1.246L154.902,44.465z"/>
			<path style="&st0;" d="M161.44,40.836c0-0.209-0.112-0.308-0.308-0.308h-0.574v-1.163h1.331c0.63,0,0.896,0.267,0.896,0.896
				v4.721c0,0.211,0.112,0.309,0.308,0.309h0.574v1.162h-1.331c-0.63,0-0.896-0.266-0.896-0.896V40.836z M161.468,36.564h1.219
				v1.414h-1.219V36.564z"/>
			<path style="&st0;" d="M165.22,40.836c0-0.209-0.112-0.308-0.308-0.308h-0.574v-1.163h1.275c0.63,0,0.868,0.267,0.868,0.715
				c0,0.211-0.014,0.379-0.014,0.379h0.028c0,0,0.588-1.262,2.353-1.262c1.905,0,3.124,1.514,3.124,3.713
				c0,2.255-1.373,3.711-3.222,3.711c-1.569,0-2.171-1.134-2.171-1.134h-0.028c0,0,0.028,0.252,0.028,0.616v3.152h-1.359V40.836z
				 M168.54,45.459c1.121,0,2.045-0.924,2.045-2.535c0-1.541-0.827-2.535-2.003-2.535c-1.05,0-2.045,0.742-2.045,2.549
				C166.537,44.198,167.223,45.459,168.54,45.459z"/>
			<path style="&st0;" d="M177.441,40.459h-0.882v-1.094h0.882v-0.238c0-2.338,1.779-2.633,2.676-2.633
				c0.308,0,0.518,0.042,0.518,0.042v1.163c0,0-0.14-0.028-0.35-0.028c-0.532,0-1.485,0.168-1.485,1.485v0.209h1.681v1.094H178.8
				v5.994h-1.359V40.459z"/>
			<path style="&st0;" d="M181.992,40.836c0-0.209-0.112-0.308-0.308-0.308h-0.574v-1.163h1.289c0.617,0,0.911,0.252,0.911,0.827
				v0.448c0,0.279-0.028,0.49-0.028,0.49h0.028c0.336-1.037,1.148-1.85,2.241-1.85c0.182,0,0.364,0.028,0.364,0.028v1.345
				c0,0-0.182-0.042-0.406-0.042c-0.869,0-1.667,0.616-1.989,1.667c-0.126,0.406-0.168,0.84-0.168,1.275v2.898h-1.359V40.836z"/>
			<path style="&st0;" d="M190.254,39.197c2.115,0,3.824,1.555,3.824,3.698c0,2.157-1.708,3.726-3.824,3.726s-3.81-1.568-3.81-3.726
				C186.444,40.752,188.139,39.197,190.254,39.197z M190.254,45.445c1.345,0,2.437-1.064,2.437-2.55
				c0-1.471-1.092-2.521-2.437-2.521c-1.331,0-2.423,1.05-2.423,2.521C187.831,44.381,188.923,45.445,190.254,45.445z"/>
			<path style="&st0;" d="M195.768,40.836c0-0.209-0.112-0.308-0.308-0.308h-0.574v-1.163h1.303c0.616,0,0.896,0.267,0.896,0.785
				v0.266c0,0.225-0.014,0.406-0.014,0.406h0.028c0.336-0.826,1.316-1.625,2.423-1.625c1.205,0,1.891,0.547,2.129,1.611h0.028
				c0.392-0.854,1.373-1.611,2.521-1.611c1.597,0,2.339,0.911,2.339,2.718v3.067c0,0.211,0.112,0.309,0.308,0.309h0.574v1.162
				h-1.345c-0.63,0-0.896-0.266-0.896-0.896v-3.348c0-0.994-0.196-1.779-1.247-1.779c-0.98,0-1.737,0.855-1.989,1.822
				c-0.07,0.293-0.112,0.602-0.112,0.966v3.235h-1.359v-4.244c0-0.924-0.14-1.779-1.218-1.779c-1.037,0-1.765,0.869-2.031,1.877
				c-0.07,0.281-0.098,0.589-0.098,0.911v3.235h-1.359V40.836z"/>
			<path style="&st0;" d="M212.708,40.459h-0.924v-1.094h0.953v-1.946h1.331v1.946h1.695v1.094h-1.695v3.249
				c0,1.415,0.98,1.597,1.499,1.597c0.196,0,0.322-0.027,0.322-0.027v1.204c0,0-0.182,0.028-0.476,0.028
				c-0.896,0-2.704-0.28-2.704-2.647V40.459z"/>
			<path style="&st0;" d="M217.426,38.035c0-0.211-0.112-0.309-0.308-0.309h-0.575v-1.162h1.345c0.63,0,0.896,0.266,0.896,0.868
				v2.76c0,0.336-0.028,0.589-0.028,0.589h0.028c0.309-0.688,1.219-1.584,2.634-1.584c1.667,0,2.423,0.911,2.423,2.718v3.067
				c0,0.211,0.112,0.309,0.308,0.309h0.574v1.162h-1.331c-0.63,0-0.896-0.266-0.896-0.896v-3.334c0-0.994-0.21-1.778-1.345-1.778
				c-1.079,0-1.947,0.729-2.241,1.751c-0.098,0.28-0.126,0.603-0.126,0.938v3.319h-1.358V38.035z"/>
			<path style="&st0;" d="M229.061,39.197c1.99,0,3.054,1.485,3.054,3.32c0,0.182-0.043,0.561-0.043,0.561h-5.168
				c0.084,1.513,1.176,2.367,2.437,2.367c1.219,0,2.073-0.826,2.073-0.826l0.589,0.966c0,0-1.051,1.036-2.731,1.036
				c-2.241,0-3.768-1.61-3.768-3.711C225.503,40.654,227.044,39.197,229.061,39.197z M230.714,42.084
				c-0.042-1.178-0.784-1.808-1.667-1.808c-1.037,0-1.877,0.63-2.087,1.808H230.714z"/>
			<path style="&st0;" d="M237.627,38.035c0-0.211-0.111-0.309-0.308-0.309h-0.575v-1.162h1.346c0.63,0,0.896,0.266,0.896,0.896
				v2.311c0,0.337-0.028,0.589-0.028,0.589h0.028c0,0,0.616-1.163,2.283-1.163c1.904,0,3.109,1.514,3.109,3.713
				c0,2.255-1.359,3.711-3.222,3.711c-1.583,0-2.228-1.189-2.228-1.189h-0.027c0,0,0.027,0.224,0.027,0.531v0.49h-1.303V38.035z
				 M240.961,45.459c1.121,0,2.045-0.924,2.045-2.535c0-1.541-0.826-2.535-2.017-2.535c-1.051,0-2.031,0.742-2.031,2.549
				C238.958,44.198,239.616,45.459,240.961,45.459z"/>
			<path style="&st0;" d="M246.055,40.836c0-0.209-0.111-0.308-0.308-0.308h-0.574v-1.163h1.331c0.645,0,0.91,0.267,0.91,0.869
				v3.361c0,0.98,0.195,1.766,1.316,1.766c1.457,0,2.312-1.275,2.312-2.676v-3.32h1.358v5.617c0,0.211,0.112,0.309,0.309,0.309
				h0.574v1.162h-1.303c-0.603,0-0.896-0.279-0.896-0.783v-0.268c0-0.224,0.014-0.406,0.014-0.406h-0.027
				c-0.295,0.701-1.205,1.625-2.605,1.625c-1.598,0-2.41-0.84-2.41-2.717V40.836z"/>
			<path style="&st0;" d="M254.665,44.465c0,0,0.841,1.051,2.144,1.051c0.658,0,1.232-0.295,1.232-0.911
				c0-1.274-3.866-1.134-3.866-3.417c0-1.359,1.19-1.99,2.634-1.99c0.854,0,2.324,0.295,2.324,1.373v0.672h-1.219v-0.35
				c0-0.42-0.63-0.602-1.064-0.602c-0.798,0-1.316,0.279-1.316,0.84c0,1.345,3.866,1.051,3.866,3.418c0,1.26-1.12,2.072-2.605,2.072
				c-1.891,0-2.829-1.246-2.829-1.246L254.665,44.465z"/>
			<path style="&st0;" d="M264.787,44.465c0,0,0.84,1.051,2.143,1.051c0.658,0,1.233-0.295,1.233-0.911
				c0-1.274-3.866-1.134-3.866-3.417c0-1.359,1.19-1.99,2.633-1.99c0.855,0,2.326,0.295,2.326,1.373v0.672h-1.219v-0.35
				c0-0.42-0.631-0.602-1.064-0.602c-0.799,0-1.316,0.279-1.316,0.84c0,1.345,3.865,1.051,3.865,3.418
				c0,1.26-1.121,2.072-2.605,2.072c-1.891,0-2.829-1.246-2.829-1.246L264.787,44.465z"/>
			<path style="&st0;" d="M271.311,40.459h-0.924v-1.094h0.953v-1.946h1.33v1.946h1.695v1.094h-1.695v3.249
				c0,1.415,0.98,1.597,1.498,1.597c0.197,0,0.322-0.027,0.322-0.027v1.204c0,0-0.182,0.028-0.476,0.028
				c-0.896,0-2.704-0.28-2.704-2.647V40.459z"/>
			<path style="&st0;" d="M279.181,39.197c2.115,0,3.823,1.555,3.823,3.698c0,2.157-1.708,3.726-3.823,3.726s-3.81-1.568-3.81-3.726
				C275.371,40.752,277.065,39.197,279.181,39.197z M279.181,45.445c1.345,0,2.437-1.064,2.437-2.55
				c0-1.471-1.092-2.521-2.437-2.521c-1.331,0-2.423,1.05-2.423,2.521C276.758,44.381,277.85,45.445,279.181,45.445z"/>
			<path style="&st0;" d="M284.694,40.836c0-0.209-0.112-0.308-0.308-0.308h-0.574v-1.163h1.274c0.63,0,0.868,0.267,0.868,0.715
				c0,0.211-0.014,0.379-0.014,0.379h0.027c0,0,0.589-1.262,2.354-1.262c1.905,0,3.124,1.514,3.124,3.713
				c0,2.255-1.373,3.711-3.222,3.711c-1.568,0-2.172-1.134-2.172-1.134h-0.027c0,0,0.027,0.252,0.027,0.616v3.152h-1.358V40.836z
				 M288.014,45.459c1.121,0,2.046-0.924,2.046-2.535c0-1.541-0.827-2.535-2.003-2.535c-1.051,0-2.045,0.742-2.045,2.549
				C286.012,44.198,286.697,45.459,288.014,45.459z"/>
		</g>
	</g>
	<g>
		<path style="&st3;" d="M26.433,13.754H7.477c-2.383,0-4.316,1.933-4.316,4.317v17.407c0,2.184,1.627,3.971,3.732,4.258v2.668
			c0,1.104,0.895,1.998,1.999,1.998c1.103,0,1.998-0.895,1.998-1.998v-2.608h12.113v2.608c0,1.104,0.895,1.998,1.999,1.998
			c1.104,0,1.998-0.895,1.998-1.998V39.74c2.115-0.281,3.752-2.07,3.752-4.262V18.072C30.751,15.687,28.818,13.754,26.433,13.754
			 M8.511,34.398c-1.017,0-1.839-0.82-1.839-1.838c0-1.016,0.823-1.839,1.839-1.839c1.016,0,1.839,0.823,1.839,1.839
			C10.351,33.578,9.527,34.398,8.511,34.398 M21.452,34.358h-8.988v-0.841h8.988V34.358z M21.452,33.168h-8.988v-0.842h8.988V33.168
			z M21.452,31.975h-8.988v-0.84h8.988V31.975z M25.325,34.398c-1.017,0-1.841-0.82-1.841-1.838c0-1.016,0.824-1.839,1.841-1.839
			c1.015,0,1.838,0.823,1.838,1.839C27.163,33.578,26.34,34.398,25.325,34.398 M27.279,24.484c0,1.414-1.146,2.559-2.56,2.559H9.134
			c-1.414,0-2.559-1.145-2.559-2.559V19.91c0-1.414,1.145-2.56,2.559-2.56H24.72c1.414,0,2.56,1.146,2.56,2.56V24.484z"/>
		<path style="&st3;" d="M110.411,13.754h-4.909l2.066-2.067c0.34-0.337,0.34-0.889,0-1.227l-4.791-4.791h2.311
			c0.495,0,0.896-0.402,0.896-0.898c0-0.494-0.401-0.895-0.896-0.895h-8.341c-0.495,0-0.896,0.401-0.896,0.895
			c0,0.496,0.401,0.898,0.896,0.898h2.316l-4.792,4.791c-0.339,0.338-0.339,0.89,0,1.227l2.067,2.067h-4.883
			c-2.383,0-4.317,1.933-4.317,4.317v17.407c0,2.184,1.627,3.971,3.732,4.258v2.668c0,1.104,0.895,1.998,1.999,1.998
			c1.103,0,1.998-0.895,1.998-1.998v-2.608h12.113v2.608c0,1.104,0.895,1.998,1.999,1.998c1.104,0,1.998-0.895,1.998-1.998V39.74
			c2.115-0.281,3.752-2.07,3.752-4.262V18.072C114.729,15.687,112.795,13.754,110.411,13.754 M96.112,11.075l4.808-4.808
			l4.807,4.808l-2.68,2.68h-4.255L96.112,11.075z M92.488,34.398c-1.016,0-1.839-0.82-1.839-1.838c0-1.016,0.823-1.839,1.839-1.839
			s1.839,0.823,1.839,1.839C94.328,33.578,93.504,34.398,92.488,34.398 M105.429,34.358h-8.987v-0.841h8.987V34.358z
			 M105.429,33.168h-8.987v-0.842h8.987V33.168z M105.429,31.975h-8.987v-0.84h8.987V31.975z M109.302,34.398
			c-1.017,0-1.84-0.82-1.84-1.838c0-1.016,0.824-1.839,1.84-1.839c1.015,0,1.838,0.823,1.838,1.839
			C111.14,33.578,110.317,34.398,109.302,34.398 M111.256,24.484c0,1.414-1.146,2.559-2.559,2.559H93.111
			c-1.415,0-2.559-1.145-2.559-2.559V19.91c0-1.414,1.145-2.56,2.559-2.56h15.586c1.414,0,2.559,1.146,2.559,2.56V24.484z"/>
		<path style="&st3;" d="M69.201,13.754H50.245c-2.383,0-4.316,1.933-4.316,4.317v17.407c0,2.385,1.933,4.317,4.316,4.317h1.837
			l-3.544,13.108c-0.251,0.725,0.134,1.514,0.857,1.764c0.723,0.252,1.513-0.131,1.764-0.855l0.706-2.613h16.042l0.714,2.613
			c0.25,0.725,1.041,1.107,1.763,0.855c0.725-0.25,1.109-1.039,0.857-1.764l-3.583-13.108h1.543c2.385,0,4.318-1.933,4.318-4.317
			V18.072C73.519,15.687,71.586,13.754,69.201,13.754 M51.279,34.398c-1.017,0-1.839-0.82-1.839-1.838
			c0-1.016,0.823-1.839,1.839-1.839c1.016,0,1.839,0.823,1.839,1.839C53.118,33.578,52.294,34.398,51.279,34.398 M52.615,48.425
			l0.974-3.606h12.573l0.986,3.606H52.615z M64.219,33.168h-8.988v-0.842h8.988V33.168z M55.231,31.135h8.988v0.84h-8.988V31.135z
			 M64.219,34.358h-8.988v-0.841h8.988V34.358z M64.789,39.796l0.615,2.249H54.339l0.607-2.249H64.789z M68.092,34.398
			c-1.017,0-1.841-0.82-1.841-1.838c0-1.016,0.824-1.839,1.841-1.839c1.015,0,1.838,0.823,1.838,1.839
			C69.93,33.578,69.107,34.398,68.092,34.398 M70.047,24.484c0,1.414-1.146,2.559-2.56,2.559H51.901
			c-1.415,0-2.559-1.145-2.559-2.559V19.91c0-1.414,1.145-2.56,2.559-2.56h15.586c1.414,0,2.56,1.146,2.56,2.56V24.484z"/>
	</g>
</g>
</svg>
