<?xml version="1.0" encoding="utf-8"?>
<!DOCTYPE svg PUBLIC "-//W3C//DTD SVG 1.0//EN" "http://www.w3.org/TR/2001/REC-SVG-20010904/DTD/svg10.dtd" [
	<!ENTITY st0 "fill:#808285;">
	<!ENTITY st1 "fill:#ED1C24;">
	<!ENTITY st2 "fill:#8A8C8E;">
	<!ENTITY st3 "fill:#8CC63F;">
	<!ENTITY st4 "fill:#F7931E;">
	<!ENTITY st5 "fill:#29ABE2;">
	<!ENTITY st6 "fill:#93278F;">
	<!ENTITY st7 "fill:#FCEE21;">
	<!ENTITY st8 "fill:#662D91;">
]>
<svg version="1.0" xmlns="http://www.w3.org/2000/svg" xmlns:xlink="http://www.w3.org/1999/xlink" x="0px" y="0px" width="100%" height="100%" viewBox="0 0 305 70" style="enable-background:new 0 0 305 70;" xml:space="preserve">
<g id="logo-my">
	<g>
		<path style="&st2;" d="M1.693,27.074c0-3.843-0.07-7.068-0.275-9.95h7.274l0.343,4.941H9.24c1.648-2.607,4.666-5.696,10.293-5.696
			c4.393,0,7.823,2.472,9.264,6.177h0.137c1.167-1.854,2.539-3.227,4.117-4.187c1.853-1.304,3.98-1.99,6.725-1.99
			c5.558,0,11.185,3.774,11.185,14.479v19.693h-8.235V32.083c0-5.558-1.921-8.852-5.971-8.852c-2.881,0-5.008,2.059-5.9,4.46
			c-0.206,0.824-0.411,1.852-0.411,2.813v20.037h-8.235v-19.35c0-4.667-1.852-7.96-5.763-7.96c-3.157,0-5.284,2.47-6.039,4.803
			c-0.343,0.824-0.48,1.784-0.48,2.745v19.762H1.693V27.074z"/>
		<path style="&st2;" d="M64.063,17.124l6.039,17.91c0.687,2.059,1.373,4.598,1.853,6.518h0.206c0.549-1.92,1.166-4.391,1.783-6.586
			l5.216-17.841h9.058l-8.371,22.783C75.248,52.393,72.16,57.951,68.18,61.383c-3.294,2.951-6.725,4.049-8.853,4.324l-1.919-7.137
			c1.44-0.344,3.225-1.098,4.94-2.334c1.578-1.029,3.431-3.02,4.596-5.283c0.344-0.619,0.549-1.098,0.549-1.511
			c0-0.343-0.068-0.823-0.48-1.646L54.8,17.124H64.063z"/>
	</g>
</g>
<g id="logo-society">
	<g>
		<path style="&st0;" d="M93.224,41.346c2.744,1.578,6.862,2.951,11.184,2.951c5.422,0,8.441-2.539,8.441-6.313
			c0-3.499-2.333-5.558-8.234-7.685c-7.617-2.745-12.489-6.793-12.489-13.45c0-7.548,6.313-13.312,16.332-13.312
			c5.009,0,8.715,1.097,11.116,2.333l-2.059,6.793c-1.647-0.892-4.873-2.196-9.194-2.196c-5.354,0-7.686,2.883-7.686,5.559
			c0,3.568,2.676,5.215,8.852,7.617c8.028,3.02,11.939,7.067,11.939,13.724c0,7.41-5.627,13.929-17.566,13.929
			c-4.872,0-9.95-1.439-12.488-2.949L93.224,41.346z"/>
		<path style="&st0;" d="M192.369,49.512c-1.783,0.822-5.281,1.783-9.469,1.783c-10.428,0-17.223-6.725-17.223-17.086
			c0-10.018,6.863-17.841,18.598-17.841c3.086,0,6.242,0.687,8.164,1.579l-1.508,6.312c-1.373-0.617-3.363-1.303-6.383-1.303
			c-6.449,0-10.293,4.734-10.225,10.842c0,6.861,4.461,10.772,10.225,10.772c2.951,0,5.01-0.617,6.656-1.303L192.369,49.512z"/>
		<path style="&st0;" d="M198.613,50.541V17.124h8.51v33.417H198.613z"/>
		<path style="&st2;" d="M207.604,7.791c0,2.54-1.854,4.529-4.805,4.529c-2.814,0-4.666-1.989-4.666-4.529
			c0-2.607,1.922-4.598,4.734-4.598C205.75,3.193,207.533,5.184,207.604,7.791z"/>
		<path style="&st0;" d="M222.146,36.199c0.207,6.039,4.941,8.646,10.295,8.646c3.912,0,6.723-0.549,9.264-1.51l1.234,5.832
			c-2.883,1.166-6.861,2.127-11.666,2.127c-10.84,0-17.223-6.725-17.223-16.947c0-9.265,5.627-17.979,16.33-17.979
			c10.912,0,14.412,8.921,14.412,16.264c0,1.577-0.139,2.813-0.275,3.567H222.146z M236.832,30.299
			c0.07-3.089-1.303-8.166-6.93-8.166c-5.215,0-7.412,4.734-7.756,8.166H236.832z"/>
		<path style="&st0;" d="M261.256,8.546v8.578h8.031v6.313h-8.031v14.753c0,4.049,1.1,6.176,4.324,6.176
			c1.58,0,2.332-0.137,3.295-0.412l0.137,6.451c-1.234,0.479-3.432,0.891-6.107,0.891c-3.09,0-5.695-1.097-7.273-2.812
			c-1.785-1.922-2.609-4.941-2.609-9.332V23.437h-4.801v-6.313h4.801v-6.175L261.256,8.546z"/>
		<path style="&st0;" d="M281.428,17.124l6.041,17.91c0.686,2.059,1.369,4.598,1.852,6.518h0.205
			c0.551-1.92,1.168-4.391,1.785-6.586l5.215-17.841h9.057l-8.371,22.783c-4.598,12.486-7.686,18.045-11.666,21.477
			c-3.293,2.951-6.725,4.049-8.852,4.324l-1.922-7.137c1.441-0.344,3.227-1.098,4.941-2.334c1.58-1.029,3.432-3.02,4.598-5.283
			c0.344-0.619,0.551-1.098,0.551-1.511c0-0.343-0.07-0.823-0.482-1.646l-12.213-30.672H281.428z"/>
	</g>
</g>
<g id="logo-colourwheel">
	<g>
		<circle style="&st1;" cx="142.828" cy="19.297" r="4.299"/>
		<circle style="&st5;" cx="142.828" cy="48.02" r="4.299"/>
		<circle style="&st4;" cx="153.099" cy="23.619" r="4.299"/>
		<path style="&st8;" d="M135.559,46.77c-1.698,1.658-4.42,1.627-6.079-0.068c-1.66-1.701-1.628-4.423,0.072-6.082
			c1.697-1.658,4.418-1.627,6.077,0.07C137.288,42.389,137.258,45.107,135.559,46.77z"/>
		<circle style="&st7;" cx="157.188" cy="33.536" r="4.298"/>
		<circle style="&st6;" cx="128.467" cy="33.779" r="4.3"/>
		<path style="&st3;" d="M149.943,46.853c-1.678-1.679-1.678-4.4,0-6.081c1.678-1.676,4.4-1.676,6.079,0
			c1.679,1.681,1.679,4.402,0,6.081S151.622,48.531,149.943,46.853z"/>
	</g>
</g>
</svg>
