<?xml version="1.0" encoding="utf-8"?>
<!-- Generator: Adobe Illustrator 13.0.0, SVG Export Plug-In . SVG Version: 6.00 Build 14948)  -->
<!DOCTYPE svg PUBLIC "-//W3C//DTD SVG 1.0//EN" "http://www.w3.org/TR/2001/REC-SVG-20010904/DTD/svg10.dtd" [
	<!ENTITY st0 "fill:#ED1C24;">
	<!ENTITY st1 "fill:#8CC63F;">
	<!ENTITY st2 "fill:#F7931E;">
	<!ENTITY st3 "fill:#29ABE2;">
	<!ENTITY st4 "fill:#93278F;">
	<!ENTITY st5 "fill:#FCEE21;">
	<!ENTITY st6 "fill:#FFFFFF;">
	<!ENTITY st7 "fill:#662D91;">
]>
<svg version="1.0" id="Layer_1" xmlns="http://www.w3.org/2000/svg" xmlns:xlink="http://www.w3.org/1999/xlink" x="0px" y="0px"
	 width="595.275px" height="841.891px" viewBox="0 0 595.275 841.891" style="enable-background:new 0 0 595.275 841.891;"
	 xml:space="preserve">
<g id="logo-my">
	<g>
		<path style="&st6;" d="M3.304,405.475c0-7.5-0.137-13.795-0.537-19.419h14.197l0.669,9.643h0.4
			c3.217-5.088,9.107-11.116,20.089-11.116c8.574,0,15.268,4.824,18.081,12.056h0.268c2.278-3.619,4.956-6.299,8.035-8.172
			c3.617-2.545,7.768-3.884,13.125-3.884c10.848,0,21.83,7.365,21.83,28.259v38.436H83.389v-36.025
			c0-10.848-3.749-17.276-11.654-17.276c-5.623,0-9.774,4.019-11.515,8.705c-0.402,1.607-0.802,3.614-0.802,5.49v39.106H43.346
			v-37.766c0-9.109-3.614-15.536-11.248-15.536c-6.162,0-10.313,4.82-11.787,9.374c-0.669,1.608-0.937,3.482-0.937,5.357v38.57
			H3.304V405.475z"/>
		<path style="&st6;" d="M125.033,386.056l11.787,34.955c1.341,4.019,2.68,8.974,3.616,12.722h0.402
			c1.071-3.748,2.276-8.57,3.48-12.854l10.18-34.82h17.679l-16.338,44.466c-8.976,24.367-15.003,35.215-22.771,41.913
			c-6.429,5.76-13.125,7.902-17.278,8.439l-3.746-13.93c2.811-0.671,6.294-2.143,9.642-4.555c3.08-2.009,6.696-5.895,8.97-10.312
			c0.671-1.208,1.071-2.143,1.071-2.949c0-0.669-0.133-1.605-0.937-3.212l-23.836-59.863H125.033z"/>
	</g>
</g>
<g id="logo-society">
	<g>
		<path style="&st6;" d="M181.947,433.331c5.355,3.08,13.393,5.76,21.828,5.76c10.583,0,16.475-4.956,16.475-12.321
			c0-6.829-4.553-10.848-16.07-14.999c-14.866-5.357-24.375-13.258-24.375-26.251c0-14.731,12.321-25.981,31.875-25.981
			c9.776,0,17.009,2.141,21.695,4.554l-4.019,13.258c-3.215-1.741-9.511-4.286-17.944-4.286c-10.45,0-15.001,5.627-15.001,10.85
			c0,6.964,5.223,10.179,17.277,14.866c15.668,5.895,23.301,13.793,23.301,26.786c0,14.462-10.982,27.186-34.284,27.186
			c-9.509,0-19.42-2.809-24.373-5.756L181.947,433.331z"/>
		<path style="&st6;" d="M375.451,449.268c-3.48,1.604-10.308,3.48-18.481,3.48c-20.353,0-33.614-13.126-33.614-33.348
			c0-19.552,13.395-34.82,36.298-34.82c6.023,0,12.184,1.341,15.935,3.081l-2.943,12.32c-2.68-1.205-6.563-2.544-12.458-2.544
			c-12.587,0-20.089,9.24-19.956,21.161c0,13.391,8.706,21.023,19.956,21.023c5.76,0,9.778-1.204,12.991-2.543L375.451,449.268z"/>
		<path style="&st6;" d="M387.638,451.277v-65.221h16.609v65.221H387.638z"/>
		<path style="&st6;" d="M405.186,367.841c0,4.957-3.618,8.839-9.378,8.839c-5.492,0-9.106-3.882-9.106-8.839
			c0-5.088,3.751-8.974,9.239-8.974C401.567,358.867,405.047,362.753,405.186,367.841z"/>
		<path style="&st6;" d="M433.567,423.285c0.404,11.787,9.644,16.875,20.093,16.875c7.636,0,13.122-1.071,18.081-2.947l2.408,11.383
			c-5.627,2.275-13.391,4.151-22.769,4.151c-21.156,0-33.614-13.126-33.614-33.076c0-18.083,10.982-35.09,31.871-35.09
			c21.298,0,28.129,17.411,28.129,31.742c0,3.078-0.271,5.49-0.537,6.962H433.567z M462.23,411.77
			c0.137-6.029-2.543-15.938-13.525-15.938c-10.179,0-14.466,9.24-15.138,15.938H462.23z"/>
		<path style="&st6;" d="M509.899,369.314v16.742h15.674v12.321h-15.674v28.794c0,7.902,2.146,12.054,8.439,12.054
			c3.084,0,4.551-0.268,6.431-0.805l0.268,12.591c-2.408,0.935-6.698,1.739-11.919,1.739c-6.031,0-11.115-2.142-14.195-5.488
			c-3.483-3.752-5.092-9.644-5.092-18.214v-30.671h-9.37v-12.321h9.37v-12.053L509.899,369.314z"/>
		<path style="&st6;" d="M549.27,386.056l11.79,34.955c1.339,4.019,2.672,8.974,3.615,12.722h0.399
			c1.076-3.748,2.28-8.57,3.484-12.854l10.178-34.82h17.677l-16.338,44.466c-8.974,24.369-15.001,35.219-22.769,41.917
			c-6.427,5.76-13.125,7.902-17.276,8.439l-3.752-13.93c2.812-0.671,6.299-2.143,9.644-4.555c3.084-2.009,6.699-5.895,8.975-10.312
			c0.671-1.208,1.075-2.143,1.075-2.949c0-0.669-0.137-1.605-0.94-3.212l-23.837-59.863h18.075V386.056z"/>
	</g>
</g>
<g id="logo-colourwheel">
	<g>
		<circle style="&st0;" cx="278.761" cy="390.297" r="8.39"/>
		<circle style="&st3;" cx="278.761" cy="446.357" r="8.39"/>
		<circle style="&st2;" cx="298.807" cy="398.732" r="8.391"/>
		<path style="&st7;" d="M264.574,443.917c-3.314,3.236-8.626,3.176-11.865-0.133c-3.24-3.319-3.177-8.632,0.141-11.87
			c3.312-3.236,8.623-3.176,11.861,0.137C267.948,435.366,267.89,440.672,264.574,443.917z"/>
		<circle style="&st5;" cx="306.788" cy="418.088" r="8.389"/>
		<circle style="&st4;" cx="250.732" cy="418.562" r="8.393"/>
		<path style="&st1;" d="M292.647,444.079c-3.275-3.277-3.275-8.588,0-11.868c3.275-3.271,8.588-3.271,11.864,0
			c3.277,3.28,3.277,8.591,0,11.868C301.235,447.356,295.924,447.354,292.647,444.079z"/>
	</g>
</g>
</svg>
