<?xml version="1.0" encoding="utf-8"?>
<!DOCTYPE svg PUBLIC "-//W3C//DTD SVG 1.0//EN" "http://www.w3.org/TR/2001/REC-SVG-20010904/DTD/svg10.dtd" [
	<!ENTITY st0 "fill:#333333;">
]>
<svg version="1.0" id="Layer_1" xmlns="http://www.w3.org/2000/svg" xmlns:xlink="http://www.w3.org/1999/xlink" x="0px" y="0px"
	 width="100%" height="100%" viewBox="0 0 80 80" style="enable-background:new 0 0 80 80;" xml:space="preserve">
<path style="&st0;" d="M11.165,40.5c0.002-16.203,13.132-29.334,29.334-29.336l0,0C56.702,11.166,69.832,24.297,69.834,40.5l0,0
	c-0.002,16.201-13.132,29.332-29.335,29.335l0,0C24.296,69.832,11.167,56.701,11.165,40.5L11.165,40.5z M16.834,40.5
	c0.022,13.067,10.595,23.641,23.665,23.665l0,0C53.568,64.141,64.142,53.567,64.164,40.5l0,0
	c-0.022-13.069-10.596-23.643-23.665-23.666l0,0C27.43,16.857,16.857,27.431,16.834,40.5L16.834,40.5z"/>
<g>
	<g>
		<path style="&st0;" d="M59.738,31.325c1.619-2.496,6.492-7.57,0.811-8.222c-3.889-0.446-7.381,0.624-10.805,2.378
			c-5.746,2.941-10.342,8.729-13.799,14.029c-2.709,4.15-5.553,14.053-11.75,14.053c-6.01,0-4.443-7.173,1.226-7.009
			c1.947,0.055,2.635-0.901,0.502-1.704c-2.601-0.979-5.254-1.236-7.772,0.169c-4.727,2.638-4.095,8.253-0.201,11.344
			c5.08,4.033,10.962,0.229,14.6-3.718c7.393-8.026,10.287-21.674,20.496-26.851c3.432-1.741,4.912-0.084,3.324,3.171
			c-0.965,1.976-2.385,3.642-3.518,5.508C50.533,38.294,48.543,42.315,46,46c-2.27,3.285-5.893,11.518,0.973,12.506
			c3.096,0.446,6.332-1.216,8.498-3.318c0.457-0.444,2.791-2.107,2.482-2.928c-0.305-0.809-1.762-0.439-2.359-0.14
			c-1.436,0.717-4.271,2.553-5.91,1.972c-1.871-0.664-1.043-3.968-0.359-5.239C52.486,42.98,56.107,36.927,59.738,31.325"/>
	</g>
	<g>
		<path style="&st0;" d="M45.549,43.82c2.893,0,5.889-0.566,5.779-4.104c-2.01,0.8-4.926,0.177-7.064,0.222
			c-2.941,0.061-6.619-0.631-7.439,3.207C36.467,44.824,43.916,43.82,45.549,43.82"/>
	</g>
</g>
</svg>
