<?xml version="1.0" encoding="utf-8"?>

<!DOCTYPE svg PUBLIC "-//W3C//DTD SVG 1.0//EN" "http://www.w3.org/TR/2001/REC-SVG-20010904/DTD/svg10.dtd" [
	<!ENTITY st0 "fill:#333333;">
]>
<svg version="1.0" id="Layer_1" xmlns="http://www.w3.org/2000/svg" xmlns:xlink="http://www.w3.org/1999/xlink" x="0px" y="0px"
	 width="100%" height="100%" viewBox="0 0 80 80" style="enable-background:new 0 0 80 80;" xml:space="preserve">
<path style="&st0;" d="M63.492,22.632l-1.513,7.562l-0.058,0.297l-0.215,0.214l-0.178,0.178c1.047,2.67,1.631,5.574,1.636,8.616
	C63.143,52.566,52.568,63.141,39.5,63.166c-13.07-0.025-23.643-10.6-23.666-23.666C15.858,26.432,26.431,15.858,39.5,15.834
	c3.041,0.005,5.944,0.589,8.614,1.636l0.178-0.178l0.215-0.215l0.297-0.058l7.564-1.513c-4.772-3.361-10.587-5.341-16.868-5.342
	C23.297,10.167,10.167,23.297,10.166,39.5c0.001,16.201,13.13,29.332,29.334,29.336C55.703,68.832,68.832,55.701,68.834,39.5
	C68.833,33.219,66.854,27.404,63.492,22.632z"/>
<path style="&st0;" d="M49,18L34,33h-9l-9,12c0,0,9.535-2.656,15.097-1.41L16,63l19.776-15.383C38.534,53.93,34,63,34,63l12-9v-9
	l15-15l3-15L49,18z M49.859,33.529c-2.28,0-4.129-1.849-4.129-4.129s1.849-4.129,4.129-4.129c2.281,0,4.13,1.849,4.13,4.129
	S52.141,33.529,49.859,33.529z"/>
</svg>
