<?xml version="1.0" encoding="utf-8"?>
<!DOCTYPE svg PUBLIC "-//W3C//DTD SVG 1.0//EN" "http://www.w3.org/TR/2001/REC-SVG-20010904/DTD/svg10.dtd" [
	<!ENTITY st0 "opacity:0.5;fill:#333333;">
	<!ENTITY st1 "opacity:0.2;fill:#333333;">
	<!ENTITY st2 "fill:#333333;">
]>
<svg version="1.0" id="Layer_1" xmlns="http://www.w3.org/2000/svg" xmlns:xlink="http://www.w3.org/1999/xlink" x="0px" y="0px"
	 width="100%" height="100%" viewBox="0 0 80 80" style="enable-background:new 0 0 80 80;" xml:space="preserve">
<path style="&st2;" d="M10.166,39.5C10.167,23.297,23.297,10.167,39.5,10.165l0,0C55.703,10.167,68.832,23.297,68.834,39.5l0,0
	C68.832,55.701,55.703,68.832,39.5,68.836l0,0C23.296,68.832,10.167,55.701,10.166,39.5L10.166,39.5z M15.834,39.5
	C15.857,52.566,26.43,63.141,39.5,63.166l0,0c13.069-0.025,23.643-10.6,23.665-23.666l0,0C63.143,26.432,52.568,15.858,39.5,15.834
	l0,0C26.431,15.858,15.858,26.432,15.834,39.5L15.834,39.5z"/>
<g>
	<path style="&st2;" d="M41.414,55.895V54.69c1.559-1.353,2.607-3.879,2.607-6.775c0-4.32-2.335-7.822-5.215-7.822
		c-2.881,0-5.215,3.502-5.215,7.822c0,2.896,1.049,5.424,2.608,6.776v1.203c-5.951,0.725-10.43,3.882-10.43,7.666h26.075
		C51.844,59.776,47.365,56.619,41.414,55.895z"/>
	<path style="&st2;" d="M31.052,54.5c-1.088-0.665-2.459-1.126-3.979-1.296v-0.599c0.779-0.676,1.304-1.938,1.304-3.387
		c0-2.16-1.167-3.911-2.607-3.911s-2.608,1.751-2.608,3.911c0,1.448,0.525,2.711,1.304,3.387v0.598
		c-3.7,0.414-6.519,2.559-6.519,5.143h7.31C26.643,56.747,28.647,55.417,31.052,54.5z"/>
	<path style="&st2;" d="M53.146,53.203v-0.598c0.779-0.676,1.305-1.938,1.305-3.387c0-2.16-1.168-3.911-2.607-3.911
		s-2.607,1.751-2.607,3.911c0,1.448,0.523,2.711,1.303,3.387v0.599c-1.52,0.17-2.891,0.631-3.979,1.296
		c2.404,0.917,4.408,2.247,5.795,3.846h7.311C59.666,55.762,56.848,53.617,53.146,53.203z"/>
</g>
<g>
	<path style="&st1;" d="M34.957,32.327v-1.144H23.311c-0.564,0-1.024,0.46-1.024,1.021v7.167c0,0.563,0.46,1.024,1.024,1.024h2.047
		v3.07l2.303-3.07h9.981c0.562,0,1.023-0.461,1.023-1.024V33.9h-2.136C35.665,33.9,34.957,33.193,34.957,32.327z"/>
	<path style="&st1;" d="M66.004,29.794h-5.88v2.533c0,0.866-0.707,1.573-1.571,1.573h-9.641v5.008c0,0.626,0.513,1.14,1.141,1.14
		h2.278v3.417l2.563-3.417h11.109c0.627,0,1.14-0.513,1.14-1.14v-7.977C67.144,30.306,66.631,29.794,66.004,29.794z"/>
	<path style="&st0;" d="M60.124,32.327v-2.533v-8.479c0-0.864-0.707-1.571-1.571-1.571H36.529c-0.864,0-1.572,0.707-1.572,1.571
		v9.868v1.144c0,0.866,0.708,1.573,1.572,1.573h2.136h1.01v4.719l3.539-4.719h5.698h9.641C59.417,33.9,60.124,33.193,60.124,32.327z
		"/>
</g>
</svg>
