<?xml version="1.0" encoding="utf-8"?>
<!DOCTYPE svg PUBLIC "-//W3C//DTD SVG 1.0//EN" "http://www.w3.org/TR/2001/REC-SVG-20010904/DTD/svg10.dtd" [
	<!ENTITY st0 "fill:#333333;">
]>
<svg version="1.0" id="Layer_1" xmlns="http://www.w3.org/2000/svg" xmlns:xlink="http://www.w3.org/1999/xlink" x="0px" y="0px"
	 width="100%" height="100%" viewBox="0 0 80 80" style="enable-background:new 0 0 80 80;" xml:space="preserve">
<path style="&st0;" d="M11.165,40.5c0.002-16.203,13.132-29.334,29.334-29.336l0,0C56.702,11.166,69.832,24.297,69.834,40.5l0,0
	c-0.002,16.201-13.132,29.332-29.335,29.335l0,0C24.296,69.832,11.167,56.701,11.165,40.5L11.165,40.5z M16.834,40.5
	c0.022,13.067,10.595,23.641,23.665,23.665l0,0C53.568,64.141,64.142,53.567,64.164,40.5l0,0
	c-0.022-13.069-10.596-23.642-23.665-23.667l0,0C27.43,16.858,16.857,27.431,16.834,40.5L16.834,40.5z"/>
<path style="&st0;" d="M48.805,24.94H30.523c-2.298,0-4.163,1.864-4.163,4.164v16.787c0,2.3,1.864,4.164,4.163,4.164h1.771
	l-3.418,12.643c-0.242,0.697,0.129,1.459,0.827,1.7c0.697,0.242,1.459-0.127,1.701-0.826l0.681-2.52h15.471l0.688,2.52
	c0.242,0.699,1.004,1.068,1.701,0.826c0.698-0.241,1.069-1.003,0.826-1.7l-3.455-12.643h1.488c2.3,0,4.164-1.864,4.164-4.164V29.104
	C52.969,26.804,51.104,24.94,48.805,24.94 M31.521,44.85c-0.98,0-1.774-0.792-1.774-1.772c0-0.979,0.793-1.773,1.774-1.773
	c0.979,0,1.773,0.794,1.773,1.773C33.294,44.058,32.5,44.85,31.521,44.85 M32.809,58.376l0.939-3.478h12.125l0.951,3.478H32.809z
	 M44,43.662h-8.667V42.85H44V43.662z M35.333,41.702H44v0.81h-8.667V41.702z M44,44.811h-8.667V44H44V44.811z M44.549,50.055
	l0.594,2.168H34.472l0.585-2.168H44.549z M47.734,44.85c-0.979,0-1.774-0.792-1.774-1.772c0-0.979,0.795-1.773,1.774-1.773
	s1.773,0.794,1.773,1.773C49.508,44.058,48.714,44.85,47.734,44.85 M49.62,35.288c0,1.363-1.104,2.468-2.468,2.468H32.121
	c-1.364,0-2.468-1.104-2.468-2.468v-4.411c0-1.364,1.104-2.468,2.468-2.468h15.032c1.363,0,2.468,1.104,2.468,2.468V35.288z"/>
</svg>
