<?xml version="1.0" encoding="utf-8"?>
<!-- Generator: Adobe Illustrator 13.0.0, SVG Export Plug-In . SVG Version: 6.00 Build 14948)  -->
<!DOCTYPE svg PUBLIC "-//W3C//DTD SVG 1.0//EN" "http://www.w3.org/TR/2001/REC-SVG-20010904/DTD/svg10.dtd" [
	<!ENTITY st0 "fill:#808080;">
	<!ENTITY st1 "fill:#EAEAEA;">
	<!ENTITY st2 "fill:none;">
	<!ENTITY st3 "fill:#333333;">
	<!ENTITY st4 "fill:#D8D8D8;">
]>
<svg version="1.0" id="Layer_1" xmlns="http://www.w3.org/2000/svg" xmlns:xlink="http://www.w3.org/1999/xlink" x="0px" y="0px"
	 width="80px" height="80px" viewBox="0 0 80 80" style="enable-background:new 0 0 80 80;" xml:space="preserve">
<g>
	<path style="&st2;" d="M32.987,38.998c0.215,0.238,0.426,0.472,0.629,0.706C33.413,39.47,33.202,39.235,32.987,38.998z"/>
	<path style="&st2;" d="M33.701,39.799c0.191,0.223,0.369,0.447,0.532,0.676C34.07,40.247,33.892,40.022,33.701,39.799z"/>
	<path style="&st2;" d="M34.285,40.548l0.586,3.079C35.217,42.364,34.886,41.416,34.285,40.548z"/>
	<path style="&st2;" d="M32.308,38.213c0.011,0.014,0.021,0.028,0.032,0.041C32.329,38.241,32.318,38.226,32.308,38.213z"/>
	<path style="&st2;" d="M34.764,43.957c-0.025,0.071-0.043,0.139-0.073,0.212C34.721,44.096,34.739,44.028,34.764,43.957z"/>
	<path style="&st2;" d="M62.738,35.069c-0.681-0.003-1.347-0.017-1.994-0.043l0.061-1.499c0.52,0.021,1.058,0.029,1.601,0.035
		c-2.214-8.526-9.05-15.176-17.678-17.133c-0.492,4.924-5.188,8.307-8.787,11.124c-0.999,0.774-2.178,0.495-2.952,1.692
		c-0.918,1.422-2.223,3.213-1.683,5.031c0.477,1.593,1.404,3.069,2.592,4.248c0.648,0.639,1.449,1.359,1.836,2.214
		c2.124,4.662-3.6,6.74-5.571,9.863c-1.287,2.025-1.791,3.663-0.792,5.977c0.315,0.738,0.396,1.53,0.315,2.322
		c-0.067,0.703-0.211,1.333-0.404,1.938c2.416,1.16,5.06,1.924,7.847,2.205l-0.959-0.669l1.144-1.641l1.23,0.858l-1.033,1.481
		c0.656,0.056,1.318,0.092,1.988,0.093c13.068-0.025,23.643-10.6,23.665-23.666C63.162,37.984,63.012,36.504,62.738,35.069z
		 M49.27,31.444c0.587,0.209,1.206,0.41,1.857,0.598l-0.415,1.441c-0.683-0.197-1.331-0.407-1.947-0.626L49.27,31.444z
		 M46.573,30.324c0.555,0.266,1.148,0.527,1.783,0.778l-0.551,1.395c-0.668-0.264-1.295-0.539-1.881-0.82L46.573,30.324z
		 M45.531,46.949l0.691-1.877l1.407,0.519l-0.691,1.877L45.531,46.949z M46.593,48.406l-0.691,1.877l-1.407-0.519l0.691-1.877
		L46.593,48.406z M46.568,44.135l0.691-1.877l1.407,0.519l-0.691,1.877L46.568,44.135z M47.604,41.319l0.691-1.877l1.408,0.519
		l-0.691,1.877L47.604,41.319z M45.706,29.887l-0.7,1.327c-0.648-0.342-1.242-0.69-1.782-1.035l0.808-1.264
		C44.537,29.238,45.095,29.564,45.706,29.887z M41.714,27.192c0.425,0.37,0.928,0.77,1.516,1.184l-0.864,1.226
		c-0.631-0.444-1.174-0.876-1.636-1.278L41.714,27.192z M39.759,25.19l0.042-0.028l0,0l0,0l0.008,0.013l0.047,0.066
		c0.044,0.061,0.114,0.155,0.212,0.277c0.197,0.244,0.505,0.599,0.942,1.027l-1.05,1.071c-0.961-0.942-1.392-1.597-1.418-1.637
		l1.259-0.816l0,0L39.759,25.19z M39.117,60.771l-1.23-0.857l1.145-1.641l1.23,0.858L39.117,60.771z M40.834,58.312l-1.23-0.858
		l1.145-1.64l1.229,0.857L40.834,58.312z M42.55,55.852l-1.229-0.858l1.145-1.641l1.229,0.858L42.55,55.852z M43.877,53.248
		l-0.213-0.278l-0.628-0.438l0.679-0.972l0.094,0.065l0.34-0.923l1.407,0.519l-0.578,1.569l-0.232-0.086l-0.479,0.686l-0.302-0.21
		L43.877,53.248z M44.486,54.041l1.189-0.913l1.218,1.587l-1.189,0.913L44.486,54.041z M46.312,56.421l1.19-0.913l1.218,1.587
		l-1.19,0.913L46.312,56.421z M49.356,60.388l-1.218-1.587l1.19-0.913l1.218,1.587L49.356,60.388z M50.05,39.023l-1.408-0.519
		l0.691-1.877l1.408,0.519L50.05,39.023z M51.087,36.208l-1.408-0.518l0.691-1.877l1.408,0.519L51.087,36.208z M53.685,34.207
		c-0.69-0.138-1.353-0.291-1.988-0.454L52.07,32.3c0.609,0.157,1.245,0.303,1.909,0.436L53.685,34.207z M56.698,34.694
		c-0.694-0.087-1.365-0.188-2.013-0.3l0.258-1.478c0.624,0.109,1.271,0.206,1.941,0.29L56.698,34.694z M59.731,34.974
		c-0.695-0.042-1.369-0.097-2.023-0.165l0.153-1.492c0.633,0.065,1.286,0.119,1.96,0.16L59.731,34.974z"/>
	<path style="&st2;" d="M28.599,59.878c-0.015,0.067-0.03,0.134-0.047,0.2C28.569,60.012,28.584,59.945,28.599,59.878z"/>
	<path style="&st2;" d="M28.704,59.289c-0.009,0.07-0.019,0.142-0.03,0.212C28.685,59.43,28.695,59.359,28.704,59.289z"/>
	<path style="&st2;" d="M28.743,58.703c0,0.062-0.005,0.125-0.008,0.188C28.737,58.828,28.742,58.766,28.743,58.703z"/>
	<path style="&st1;" d="M28.599,59.878c0.029-0.125,0.054-0.251,0.074-0.377c0.011-0.07,0.021-0.142,0.03-0.212
		c0.016-0.132,0.025-0.265,0.031-0.397c0.003-0.063,0.008-0.126,0.008-0.188c0.001-0.195-0.006-0.391-0.029-0.587
		c-0.135-1.144-0.828-2.043-0.972-3.159c-0.27-2.088,0.792-3.798,1.962-5.463c1.314-1.899,3.609-2.619,4.698-4.698
		c0.114-0.218,0.209-0.426,0.29-0.627c0.029-0.073,0.048-0.141,0.073-0.212c0.04-0.111,0.078-0.223,0.107-0.33l-0.586-3.079
		c-0.017-0.024-0.035-0.048-0.052-0.073c-0.163-0.229-0.341-0.453-0.532-0.676c-0.028-0.032-0.056-0.064-0.084-0.096
		c-0.204-0.233-0.415-0.467-0.629-0.706c-0.218-0.241-0.436-0.487-0.647-0.744c-0.011-0.013-0.021-0.027-0.032-0.041
		c-0.216-0.265-0.425-0.54-0.615-0.833c-0.963-1.494-1.971-3.492-1.305-5.328c0.495-1.359,1.395-3.717,2.7-4.482
		c1.062-0.621,2.187-0.522,3.06-1.62c0.738-0.936,2.286-1.638,3.186-2.403c2.094-1.792,4.095-4.478,4.385-7.324
		c-1.37-0.248-2.778-0.386-4.219-0.389c-6.615,0.012-12.588,2.73-16.88,7.104c0.941-0.312,1.439-1.098,2.278-1.579
		c0.06-0.034,0.12-0.049,0.178-0.049c0.128,0,0.249,0.073,0.335,0.184c0.949,1.311,2.182,1.762,3.494,1.762
		c1.139,0,2.338-0.34,3.463-0.754c0.423-0.158,0.774-0.247,1.098-0.247c0.467,0,0.875,0.186,1.359,0.616
		c0.28,0.259,0.021,0.633-0.278,0.633c-0.085,0-0.173-0.03-0.253-0.102c-0.168-0.151-0.436-0.211-0.762-0.211
		c-1.206,0-3.221,0.814-4.071,0.814c-0.828-0.009-1.782,0.036-2.565-0.297c-0.32-0.144-1.595-1.271-2.132-1.271
		c-0.066,0-0.122,0.017-0.163,0.056c-0.666,0.648-1.179,1.08-2.088,1.251c-0.028,0.005-0.055,0.008-0.081,0.008
		c-0.173,0-0.295-0.112-0.353-0.248c-0.749,0.815-1.439,1.684-2.07,2.598c0.278-0.227,0.528-0.478,0.686-0.783
		c0.07-0.147,0.341-0.388,0.546-0.388c0.007,0,0.014,0,0.021,0.001c1.323,0.071,2.027,1.508,3.264,1.508
		c0.328,0,0.694-0.101,1.119-0.356c0.595-0.359,1.124-0.688,1.689-0.688c0.298,0,0.606,0.091,0.939,0.318
		c0.855,0.576,0.135,1.935,1.134,2.691c0.312,0.237,0.109,0.72-0.189,0.72c-0.063,0-0.13-0.021-0.198-0.072
		c-0.621-0.477-1.17-1.053-1.134-1.881c0.03-0.623-0.204-0.837-0.563-0.837c-0.799,0-2.219,1.062-2.722,1.062
		c-0.523,0-2.945-1.424-3.356-1.424c-0.028,0-0.046,0.006-0.055,0.02c-0.432,0.712-1.324,1.188-2.088,1.534
		c-2.066,3.511-3.26,7.6-3.268,11.971c0.002,0.991,0.071,1.966,0.191,2.925c0.56-0.411,1.173-0.611,1.813-0.611
		c1.053,0,2.173,0.52,3.226,1.435c0.573,0.5,1.086,0.677,1.571,0.677c0.589,0,1.134-0.262,1.687-0.523
		c0.556-0.271,1.121-0.536,1.748-0.536c0.186,0,0.377,0.023,0.575,0.077c1.431,0.396,2.34,1.89,3.492,2.709
		c0.321,0.23,0.116,0.716-0.189,0.716c-0.063,0-0.13-0.021-0.198-0.068c-0.963-0.684-1.746-1.926-2.817-2.412
		c-0.298-0.135-0.57-0.19-0.823-0.19c-1.06,0-1.798,0.973-2.858,1.118c-0.103,0.014-0.205,0.021-0.307,0.021
		c-0.952,0-1.866-0.577-2.744-1.146c-0.881-0.578-1.736-1.152-2.577-1.152c-0.498,0-0.991,0.209-1.481,0.729
		c0.168,1.046,0.406,2.069,0.708,3.065c0.024,0.003,0.048,0.004,0.075,0.012c0.389,0.117,0.768,0.162,1.141,0.162
		c0.663,0,1.307-0.144,1.946-0.288c0.648-0.142,1.292-0.282,1.955-0.282c0.35,0,0.705,0.039,1.069,0.139
		c1.353,0.374,2.433,2.469,3.935,2.469c0.267,0,0.547-0.065,0.844-0.219c0.061-0.032,0.121-0.047,0.178-0.047
		c0.337,0,0.562,0.502,0.2,0.694c-0.407,0.21-0.783,0.3-1.14,0.3c-0.899,0-1.677-0.569-2.514-1.227
		c-0.875-0.685-1.499-1.446-2.631-1.446c-0.252,0-0.531,0.038-0.843,0.123c-0.675,0.181-1.359,0.378-2.052,0.531
		c-0.264,0.061-0.514,0.087-0.758,0.087c-0.383,0-0.754-0.076-1.133-0.174c0.692,2.015,1.643,3.908,2.821,5.636
		c0.239-0.734,0.924-1.207,1.788-1.256c0.107-0.007,0.219-0.012,0.332-0.012c0.458,0,0.949,0.07,1.324,0.309
		c0.649,0.418,1.557,1.322,2.443,1.322c0.317,0,0.633-0.116,0.932-0.413c0.078-0.078,0.165-0.11,0.25-0.11
		c0.288,0,0.545,0.377,0.281,0.642c-0.479,0.475-0.954,0.679-1.438,0.679c-0.536,0-1.085-0.25-1.667-0.661
		c-0.567-0.404-1.197-0.99-1.935-1.017c-0.042-0.002-0.084-0.002-0.126-0.002c-0.789,0-1.58,0.252-1.521,1.226
		c0.004,0.068-0.011,0.124-0.036,0.173c2.09,2.785,4.782,5.09,7.88,6.732c0.036-0.111,0.072-0.222,0.103-0.335
		C28.569,60.012,28.584,59.945,28.599,59.878z M34.33,20.289c-0.413-0.764-0.775-1.452-1.404-1.452c-0.29,0-0.637,0.146-1.071,0.498
		c-0.342,0.279-0.765,0.567-1.197,0.72c-0.454,0.159-0.899,0.257-1.333,0.257c-0.523,0-1.029-0.143-1.511-0.492
		c-0.328-0.231-0.125-0.716,0.18-0.716c0.063,0,0.13,0.021,0.198,0.068c0.452,0.328,0.851,0.458,1.217,0.458
		c1.372,0,2.283-1.816,3.76-1.816c0.405,0,0.801,0.189,1.017,0.54c0.225,0.378,0.369,0.774,0.576,1.161
		c0.441,0.673,0.872,1.009,1.292,1.009c0.445,0,0.878-0.376,1.299-1.126c0.029-0.189,0.16-0.271,0.303-0.271
		c0.217,0,0.46,0.187,0.417,0.469c-0.16,1.044-1.127,1.684-2.076,1.684C35.344,21.28,34.697,20.976,34.33,20.289z M17.789,32.999
		c-0.312,0-0.519-0.486-0.181-0.704c1.764-1.161,3.861-2.565,6.021-2.727c0.008,0,0.017-0.001,0.024-0.001
		c0.343,0,0.49,0.554,0.165,0.703c-0.567,0.252-1.152,0.621-1.422,1.215c-0.479,1.048,0.467,1.473,1.347,1.473
		c0.179,0,0.355-0.018,0.516-0.051c0.616-0.119,1.39-0.372,2.071-0.372c0.146,0,0.288,0.011,0.422,0.039
		c1.89,0.396-0.828,2.772,0.864,3.321c0.417,0.139,0.291,0.748-0.081,0.748c-0.037,0-0.076-0.006-0.117-0.019
		c-1.314-0.432-1.44-1.143-0.945-2.367c0.286-0.708-0.015-0.905-0.483-0.905c-0.489,0-1.16,0.215-1.533,0.284
		c-0.324,0.056-0.675,0.111-1.02,0.111c-0.211,0-0.42-0.021-0.618-0.076c-1.755-0.501-1.535-1.972-0.66-3.043
		c-1.496,0.504-2.937,1.497-4.173,2.305C17.918,32.979,17.852,32.999,17.789,32.999z M30.211,42.471
		c-0.04,0-0.083-0.008-0.129-0.023c-1.246-0.443-2.758-1.646-2.485-2.987c-1.142,0.364-2.069,1.08-3.138,1.08
		c-0.465,0-0.957-0.136-1.505-0.496c-0.892-0.582-0.715-1.785-0.375-2.696c-1.388,0.053-2.869,0.754-3.486,2.012
		c-0.067,0.135-0.177,0.191-0.289,0.191c-0.247,0-0.507-0.271-0.359-0.569c0.744-1.513,2.582-2.388,4.257-2.388
		c0.148,0,0.296,0.007,0.441,0.021c0.288,0.027,0.459,0.288,0.324,0.558c-0.504,1.01-0.194,2.738,1.03,2.738
		c0.172,0,0.363-0.035,0.572-0.11c0.495-0.189,0.972-0.414,1.422-0.684c0.558-0.279,1.017-0.468,1.656-0.549
		c0.017-0.002,0.033-0.003,0.05-0.003c0.27,0,0.577,0.264,0.373,0.552c-0.873,1.233,0.81,2.286,1.719,2.609
		C30.694,41.873,30.574,42.471,30.211,42.471z"/>
	<path style="&st0;" d="M29.371,56.577c-0.999-2.313-0.495-3.951,0.792-5.977c1.971-3.123,7.695-5.201,5.571-9.863
		c-0.387-0.855-1.188-1.575-1.836-2.214c-1.188-1.179-2.115-2.655-2.592-4.248c-0.54-1.818,0.765-3.609,1.683-5.031
		c0.774-1.197,1.953-0.918,2.952-1.692c3.599-2.816,8.294-6.2,8.787-11.124c-0.334-0.076-0.67-0.144-1.009-0.206
		c-0.29,2.847-2.291,5.533-4.385,7.324c-0.9,0.765-2.448,1.467-3.186,2.403c-0.873,1.098-1.998,0.999-3.06,1.62
		c-1.305,0.765-2.205,3.123-2.7,4.482c-0.666,1.836,0.342,3.834,1.305,5.328c0.189,0.293,0.398,0.568,0.615,0.833
		c0.011,0.013,0.021,0.028,0.032,0.041c0.211,0.257,0.43,0.502,0.647,0.744c0.215,0.238,0.426,0.472,0.629,0.706
		c0.028,0.032,0.056,0.064,0.084,0.096c0.191,0.223,0.369,0.448,0.532,0.676c0.017,0.024,0.035,0.048,0.052,0.073
		c0.601,0.868,0.932,1.816,0.586,3.079c-0.029,0.107-0.068,0.219-0.107,0.33c-0.025,0.071-0.043,0.139-0.073,0.212
		c-0.081,0.201-0.175,0.409-0.29,0.627c-1.089,2.079-3.384,2.799-4.698,4.698c-1.17,1.665-2.232,3.375-1.962,5.463
		c0.144,1.116,0.837,2.016,0.972,3.159c0.023,0.196,0.03,0.392,0.029,0.587c0,0.062-0.005,0.125-0.008,0.188
		c-0.006,0.133-0.015,0.266-0.031,0.397c-0.009,0.07-0.019,0.141-0.03,0.212c-0.021,0.126-0.045,0.252-0.074,0.377
		c-0.015,0.067-0.03,0.134-0.047,0.2c-0.03,0.113-0.066,0.224-0.103,0.335c0.275,0.146,0.551,0.289,0.833,0.425
		c0.192-0.605,0.337-1.235,0.404-1.938C29.767,58.107,29.686,57.315,29.371,56.577z"/>
	<path style="&st4;" d="M30.289,41.727c-0.909-0.323-2.592-1.376-1.719-2.609c0.204-0.288-0.104-0.552-0.373-0.552
		c-0.017,0-0.033,0.001-0.05,0.003c-0.639,0.081-1.098,0.27-1.656,0.549c-0.45,0.27-0.927,0.495-1.422,0.684
		c-0.209,0.076-0.4,0.11-0.572,0.11c-1.224,0-1.534-1.729-1.03-2.738c0.135-0.27-0.036-0.531-0.324-0.558
		c-0.145-0.014-0.292-0.021-0.441-0.021c-1.676,0-3.513,0.875-4.257,2.388c-0.148,0.297,0.112,0.569,0.359,0.569
		c0.112,0,0.222-0.056,0.289-0.191c0.617-1.258,2.098-1.959,3.486-2.012c-0.34,0.911-0.516,2.114,0.375,2.696
		c0.548,0.36,1.04,0.496,1.505,0.496c1.068,0,1.996-0.716,3.138-1.08c-0.273,1.34,1.239,2.543,2.485,2.987
		c0.046,0.016,0.089,0.023,0.129,0.023C30.574,42.471,30.694,41.873,30.289,41.727z"/>
	<path style="&st4;" d="M17.623,42.537c0.841,0,1.696,0.574,2.577,1.152c0.878,0.568,1.792,1.146,2.744,1.146
		c0.102,0,0.204-0.007,0.307-0.021c1.061-0.146,1.799-1.118,2.858-1.118c0.253,0,0.524,0.056,0.823,0.19
		c1.071,0.486,1.854,1.729,2.817,2.412c0.068,0.048,0.135,0.068,0.198,0.068c0.305,0,0.51-0.485,0.189-0.716
		c-1.152-0.819-2.061-2.313-3.492-2.709c-0.198-0.054-0.389-0.077-0.575-0.077c-0.626,0-1.192,0.265-1.748,0.536
		c-0.553,0.262-1.098,0.523-1.687,0.523c-0.484,0-0.998-0.177-1.571-0.677c-1.053-0.915-2.173-1.435-3.226-1.435
		c-0.64,0-1.253,0.2-1.813,0.611c0.035,0.282,0.072,0.562,0.117,0.842C16.632,42.746,17.125,42.537,17.623,42.537z"/>
	<path style="&st4;" d="M22.125,52.282c0.042,0,0.084,0,0.126,0.002c0.738,0.026,1.368,0.612,1.935,1.017
		c0.581,0.411,1.13,0.661,1.667,0.661c0.485,0,0.959-0.204,1.438-0.679c0.264-0.265,0.007-0.642-0.281-0.642
		c-0.085,0-0.172,0.032-0.25,0.11c-0.299,0.297-0.615,0.413-0.932,0.413c-0.886,0-1.794-0.904-2.443-1.322
		c-0.375-0.238-0.866-0.309-1.324-0.309c-0.113,0-0.225,0.005-0.332,0.012c-0.864,0.049-1.549,0.521-1.788,1.256
		c0.203,0.298,0.412,0.592,0.627,0.879c0.024-0.049,0.04-0.104,0.036-0.173C20.545,52.534,21.337,52.282,22.125,52.282z"/>
	<path style="&st4;" d="M19.012,47.253c0.693-0.153,1.377-0.351,2.052-0.531c0.312-0.085,0.591-0.123,0.843-0.123
		c1.132,0,1.755,0.762,2.631,1.446c0.837,0.657,1.615,1.227,2.514,1.227c0.357,0,0.733-0.09,1.14-0.3
		c0.362-0.192,0.138-0.694-0.2-0.694c-0.057,0-0.117,0.015-0.178,0.047c-0.297,0.153-0.577,0.219-0.844,0.219
		c-1.502,0-2.582-2.095-3.935-2.469c-0.364-0.1-0.719-0.139-1.069-0.139c-0.663,0-1.307,0.141-1.955,0.282
		c-0.64,0.145-1.283,0.288-1.946,0.288c-0.373,0-0.752-0.045-1.141-0.162c-0.026-0.008-0.05-0.009-0.075-0.012
		c0.084,0.28,0.177,0.558,0.272,0.834c0.379,0.098,0.75,0.174,1.133,0.174C18.499,47.34,18.749,47.313,19.012,47.253z"/>
	<path style="&st4;" d="M22.819,33.672c0.198,0.055,0.407,0.076,0.618,0.076c0.345,0,0.696-0.056,1.02-0.111
		c0.373-0.069,1.044-0.284,1.533-0.284c0.468,0,0.769,0.197,0.483,0.905c-0.495,1.224-0.369,1.935,0.945,2.367
		c0.042,0.013,0.081,0.019,0.117,0.019c0.372,0,0.499-0.609,0.081-0.748c-1.692-0.549,1.026-2.925-0.864-3.321
		c-0.135-0.027-0.276-0.039-0.422-0.039c-0.681,0-1.455,0.253-2.071,0.372c-0.161,0.033-0.337,0.051-0.516,0.051
		c-0.88,0-1.826-0.425-1.347-1.473c0.27-0.594,0.855-0.963,1.422-1.215c0.326-0.149,0.178-0.703-0.165-0.703
		c-0.008,0-0.016,0-0.024,0.001c-2.16,0.162-4.257,1.566-6.021,2.727c-0.337,0.217-0.131,0.704,0.181,0.704
		c0.062,0,0.129-0.02,0.197-0.064c1.236-0.809,2.678-1.801,4.173-2.305C21.284,31.7,21.064,33.17,22.819,33.672z"/>
	<path style="&st4;" d="M38.074,19.596c0.043-0.282-0.201-0.469-0.417-0.469c-0.143,0-0.274,0.082-0.303,0.271
		c-0.421,0.75-0.854,1.126-1.299,1.126c-0.42,0-0.851-0.335-1.292-1.009c-0.207-0.387-0.351-0.783-0.576-1.161
		c-0.216-0.351-0.612-0.54-1.017-0.54c-1.478,0-2.389,1.816-3.76,1.816c-0.366,0-0.765-0.129-1.217-0.458
		c-0.067-0.047-0.135-0.068-0.198-0.068c-0.305,0-0.508,0.485-0.18,0.716c0.482,0.349,0.988,0.492,1.511,0.492
		c0.434,0,0.88-0.098,1.333-0.257c0.432-0.153,0.855-0.441,1.197-0.72c0.434-0.352,0.781-0.498,1.071-0.498
		c0.629,0,0.991,0.688,1.404,1.452c0.367,0.687,1.014,0.991,1.668,0.991C36.947,21.28,37.914,20.64,38.074,19.596z"/>
	<path style="&st4;" d="M22.432,23.753c0.026,0,0.053-0.002,0.081-0.008c0.909-0.171,1.422-0.603,2.088-1.251
		c0.041-0.039,0.096-0.056,0.163-0.056c0.537,0,1.812,1.127,2.132,1.271c0.783,0.333,1.737,0.288,2.565,0.297
		c0.85,0,2.865-0.814,4.071-0.814c0.326,0,0.593,0.06,0.762,0.211c0.08,0.072,0.168,0.102,0.253,0.102
		c0.299,0,0.559-0.374,0.278-0.633c-0.484-0.431-0.893-0.616-1.359-0.616c-0.323,0-0.674,0.089-1.098,0.247
		c-1.125,0.414-2.324,0.754-3.463,0.754c-1.312,0-2.545-0.452-3.494-1.762c-0.086-0.111-0.207-0.184-0.335-0.184
		c-0.059,0-0.119,0.015-0.178,0.049c-0.839,0.481-1.337,1.267-2.278,1.579c-0.183,0.187-0.364,0.375-0.541,0.567
		C22.137,23.641,22.259,23.753,22.432,23.753z"/>
	<path style="&st4;" d="M21.19,25.995c0.008-0.014,0.027-0.02,0.055-0.02c0.412,0,2.833,1.424,3.356,1.424
		c0.503,0,1.922-1.062,2.722-1.062c0.36,0,0.594,0.214,0.563,0.837c-0.036,0.828,0.513,1.404,1.134,1.881
		c0.068,0.05,0.135,0.072,0.198,0.072c0.298,0,0.5-0.482,0.189-0.72c-0.999-0.756-0.279-2.115-1.134-2.691
		c-0.333-0.227-0.641-0.318-0.939-0.318c-0.565,0-1.094,0.328-1.689,0.688c-0.425,0.255-0.791,0.356-1.119,0.356
		c-1.237,0-1.941-1.437-3.264-1.508c-0.007,0-0.015-0.001-0.021-0.001c-0.205,0-0.476,0.24-0.546,0.388
		c-0.158,0.306-0.408,0.557-0.686,0.783c-0.319,0.463-0.621,0.939-0.908,1.426C19.866,27.183,20.758,26.707,21.19,25.995z"/>
	<polygon style="&st0;" points="39.802,25.162 39.801,25.162 39.759,25.19 39.802,25.162 39.802,25.162 	"/>
	<path style="&st0;" d="M60.744,35.025c0.647,0.026,1.313,0.041,1.994,0.043c-0.097-0.508-0.205-1.012-0.333-1.508
		c-0.543-0.005-1.081-0.013-1.601-0.035L60.744,35.025z"/>
	<path style="&st0;" d="M45.006,31.214l0.7-1.327c-0.611-0.323-1.169-0.649-1.675-0.973l-0.808,1.264
		C43.764,30.524,44.357,30.872,45.006,31.214z"/>
	<path style="&st0;" d="M51.127,32.042c-0.651-0.188-1.271-0.389-1.857-0.598l-0.505,1.413c0.616,0.22,1.265,0.43,1.947,0.626
		L51.127,32.042z"/>
	<path style="&st0;" d="M39.961,27.616l1.05-1.071c-0.437-0.428-0.745-0.783-0.942-1.027c-0.098-0.122-0.168-0.216-0.212-0.277
		l-0.047-0.066l-0.008-0.013l-1.259,0.816C38.569,26.019,39,26.673,39.961,27.616z"/>
	<path style="&st0;" d="M42.365,29.603l0.864-1.226c-0.588-0.414-1.091-0.814-1.516-1.184l-0.984,1.132
		C41.191,28.726,41.734,29.158,42.365,29.603z"/>
	<path style="&st0;" d="M54.686,34.394c0.647,0.113,1.318,0.213,2.013,0.3l0.187-1.488c-0.671-0.084-1.317-0.181-1.941-0.29
		L54.686,34.394z"/>
	<path style="&st0;" d="M57.708,34.81c0.654,0.067,1.328,0.123,2.023,0.165l0.09-1.497c-0.674-0.041-1.327-0.094-1.96-0.16
		L57.708,34.81z"/>
	<path style="&st0;" d="M48.356,31.102c-0.635-0.251-1.229-0.512-1.783-0.778l-0.648,1.353c0.586,0.281,1.213,0.556,1.881,0.82
		L48.356,31.102z"/>
	<path style="&st0;" d="M51.696,33.752c0.636,0.164,1.298,0.316,1.988,0.454l0.295-1.471c-0.664-0.133-1.3-0.279-1.909-0.436
		L51.696,33.752z"/>
	
		<rect x="46.868" y="42.455" transform="matrix(0.9383 0.3458 -0.3458 0.9383 17.9625 -13.7843)" style="&st0;" width="1.5" height="2"/>
	
		<rect x="48.941" y="36.825" transform="matrix(-0.9384 -0.3456 0.3456 -0.9384 83.2511 90.4914)" style="&st0;" width="1.501" height="2"/>
	
		<rect x="47.904" y="39.64" transform="matrix(0.9384 0.3456 -0.3456 0.9384 17.0406 -14.3092)" style="&st0;" width="1.501" height="2"/>
	
		<rect x="49.978" y="34.01" transform="matrix(-0.9385 -0.3453 0.3453 -0.9385 86.2495 85.3825)" style="&st0;" width="1.5" height="2"/>
	
		<rect x="46.766" y="55.758" transform="matrix(0.7935 -0.6086 0.6086 0.7935 -24.7297 40.6412)" style="&st0;" width="1.5" height="2"/>
	
		<rect x="40.04" y="56.062" transform="matrix(-0.8201 -0.5722 0.5722 -0.8201 41.5967 127.1997)" style="&st0;" width="1.5" height="2"/>
	
		<rect x="41.758" y="53.602" transform="matrix(-0.8199 -0.5725 0.5725 -0.8199 46.1033 123.7058)" style="&st0;" width="1.499" height="2"/>
	
		<rect x="44.794" y="48.085" transform="matrix(-0.9383 -0.3458 0.3458 -0.9383 71.3058 110.8907)" style="&st0;" width="1.5" height="2"/>
	
		<rect x="38.324" y="58.523" transform="matrix(-0.8205 -0.5717 0.5717 -0.8205 37.1023 130.6979)" style="&st0;" width="1.5" height="1.999"/>
	
		<rect x="44.94" y="53.378" transform="matrix(0.7932 -0.6089 0.6089 0.7932 -23.6646 39.0655)" style="&st0;" width="1.5" height="2"/>
	
		<rect x="48.343" y="58.388" transform="matrix(-0.6088 -0.7933 0.7933 -0.6088 32.4664 134.2853)" style="&st0;" width="2" height="1.5"/>
	<polygon style="&st0;" points="44.745,52.705 44.978,52.791 45.556,51.222 44.148,50.703 43.809,51.626 43.715,51.561 
		43.036,52.532 43.664,52.97 43.877,53.248 43.965,53.181 44.267,53.391 	"/>
	<path style="&st0;" d="M37.314,60.733l-1.144,1.641l0.959,0.669c0.126,0.014,0.255,0.02,0.382,0.03l1.033-1.481L37.314,60.733z"/>
	
		<rect x="45.831" y="45.27" transform="matrix(0.9383 0.3458 -0.3458 0.9383 18.8716 -13.2521)" style="&st0;" width="1.5" height="2"/>
	<path style="&st3;" d="M39.5,10.165C23.297,10.167,10.167,23.297,10.166,39.5c0.001,16.201,13.13,29.332,29.334,29.336
		C55.703,68.832,68.832,55.701,68.834,39.5C68.832,23.297,55.703,10.167,39.5,10.165z M39.5,63.166
		c-0.67-0.001-1.332-0.037-1.988-0.093c-0.127-0.011-0.256-0.017-0.382-0.03c-2.787-0.281-5.431-1.045-7.847-2.205
		c-0.282-0.136-0.558-0.279-0.833-0.425c-3.098-1.643-5.79-3.947-7.88-6.732c-0.216-0.287-0.425-0.581-0.627-0.879
		c-1.178-1.728-2.129-3.621-2.821-5.636c-0.095-0.276-0.188-0.554-0.272-0.834c-0.301-0.996-0.539-2.02-0.708-3.065
		c-0.045-0.279-0.082-0.56-0.117-0.842c-0.12-0.959-0.189-1.934-0.191-2.925c0.008-4.371,1.201-8.459,3.268-11.971
		c0.287-0.487,0.588-0.963,0.908-1.426c0.63-0.914,1.321-1.783,2.07-2.598c0.177-0.192,0.358-0.38,0.541-0.567
		c4.292-4.374,10.265-7.092,16.88-7.104c1.44,0.002,2.849,0.141,4.219,0.389c0.339,0.062,0.675,0.13,1.009,0.206
		c8.628,1.957,15.464,8.606,17.678,17.133c0.128,0.496,0.236,1,0.333,1.508c0.273,1.436,0.424,2.916,0.427,4.431
		C63.143,52.566,52.568,63.141,39.5,63.166z"/>
</g>
<path style="&st3;" d="M40.449,24.85c-4.172,0-7.553,3.381-7.553,7.552c0,0.104,0.003,0.21,0.008,0.318l0.011,0.188l0.009,0.121
	l0.018,0.199C33.568,39.329,40.449,51,40.449,51s6.88-11.67,7.506-17.771l0.018-0.199l0.01-0.121l0.011-0.188
	c0.005-0.108,0.009-0.215,0.009-0.318C48.001,28.23,44.619,24.85,40.449,24.85z M43.717,33.021c0,1.806-1.463,3.269-3.268,3.269
	c-1.806,0-3.27-1.463-3.27-3.269s1.463-3.269,3.27-3.269C42.254,29.753,43.717,31.216,43.717,33.021z"/>
</svg>
