<?xml version="1.0" encoding="utf-8"?>

<!DOCTYPE svg PUBLIC "-//W3C//DTD SVG 1.0//EN" "http://www.w3.org/TR/2001/REC-SVG-20010904/DTD/svg10.dtd" [
	<!ENTITY st0 "opacity:0.5;fill:#333333;">
	<!ENTITY st1 "fill:#333333;">
]>
<svg version="1.0" id="Layer_1" xmlns="http://www.w3.org/2000/svg" xmlns:xlink="http://www.w3.org/1999/xlink" x="0px" y="0px"
	 width="100%" height="100%" viewBox="0 0 80 80" style="enable-background:new 0 0 80 80;" xml:space="preserve">
<path style="&st1;" d="M10.166,39.5C10.167,23.297,23.297,10.167,39.5,10.165l0,0C55.703,10.167,68.832,23.297,68.834,39.5l0,0
	C68.832,55.701,55.703,68.832,39.5,68.836l0,0C23.296,68.832,10.167,55.701,10.166,39.5L10.166,39.5z M15.834,39.5
	C15.856,52.566,26.43,63.141,39.5,63.166l0,0c13.069-0.025,23.643-10.6,23.665-23.666l0,0C63.143,26.432,52.568,15.857,39.5,15.834
	l0,0C26.431,15.857,15.857,26.432,15.834,39.5L15.834,39.5z"/>
<g>
	<path style="&st0;" d="M45.862,31.881c-0.134-0.308-0.279-0.62-0.432-0.932c-0.166-0.34-0.34-0.675-0.518-0.999
		c-1.654-3.008-3.504-4.864-4.636-5.573c0.649,1.176,1.102,3.744,1.102,6.729c0,3.648-0.675,6.681-1.562,7.297v-0.007
		c-0.003,0.002-0.006,0.005-0.009,0.007v-14.27l0.009,0.004v-0.004c-0.14-0.057-0.261-0.087-0.354-0.087
		c-0.085,0-0.191,0.026-0.312,0.072v14.284c-0.003-0.002-0.006-0.005-0.009-0.007v0.007c-0.889-0.616-1.562-3.648-1.562-7.297
		c0-3.012,0.46-5.599,1.119-6.759c-1.115,0.678-2.971,2.513-4.638,5.513c-0.176,0.316-0.352,0.65-0.521,0.992
		c-0.166,0.336-0.315,0.654-0.454,0.971c1.219,2.872,1.837,5.838,1.837,8.816s-0.618,5.943-1.837,8.814
		c0.141,0.321,0.29,0.643,0.456,0.978c0.171,0.345,0.347,0.68,0.521,0.991c1.622,2.916,3.423,4.734,4.545,5.454
		c-0.61-1.23-1.029-3.715-1.029-6.589c0-3.648,0.674-6.68,1.562-7.296v0.007c0.003-0.002,0.006-0.004,0.009-0.007v14.166
		c0.121,0.047,0.228,0.072,0.312,0.072c0.094,0,0.215-0.028,0.354-0.087V57.14l-0.009,0.004V42.992
		c0.003,0.003,0.006,0.005,0.009,0.007v-0.007c0.888,0.616,1.562,3.647,1.562,7.296c0,2.853-0.413,5.32-1.017,6.561
		c1.141-0.75,2.945-2.597,4.562-5.543c0.177-0.323,0.352-0.658,0.516-0.998c0.154-0.314,0.293-0.614,0.422-0.91
		c-1.202-2.854-1.812-5.801-1.812-8.758S44.66,34.736,45.862,31.881z M39.474,42.758c-0.793,0-1.437-0.949-1.437-2.118
		c0-1.171,0.644-2.12,1.437-2.12c0.794,0,1.437,0.949,1.437,2.12C40.91,41.809,40.268,42.758,39.474,42.758z"/>
	<path style="&st1;" d="M46.091,50.619c0.183-0.375,0.346-0.729,0.496-1.081l0.06-0.138l-0.041-0.099
		c1.181-2.824,1.783-5.737,1.783-8.662c0-2.924-0.603-5.838-1.783-8.664l0.041-0.098l-0.06-0.139
		c-0.155-0.361-0.326-0.731-0.507-1.102c-0.035-0.069-0.072-0.135-0.105-0.204l0.651-1.131c0.58-0.021,1.247-0.478,1.526-0.962
		c0.365-0.633,3.552-7.335,2.919-7.699c-0.632-0.366-4.844,5.744-5.209,6.377c-0.279,0.485-0.341,1.29-0.069,1.804l-0.351,0.606
		c-2.113-3.766-4.727-6.091-5.969-6.091c-1.225,0-3.817,2.293-5.923,6.007l-0.343-0.596c0.271-0.513,0.21-1.318-0.07-1.803
		c-0.365-0.632-4.576-6.742-5.209-6.378c-0.632,0.364,2.554,7.066,2.919,7.699c0.28,0.485,0.947,0.941,1.527,0.962l0.642,1.111
		c-0.034,0.065-0.067,0.131-0.101,0.197c-0.195,0.396-0.369,0.77-0.531,1.144l-0.06,0.141l0.041,0.095
		c-1.197,2.844-1.808,5.776-1.808,8.723c0,2.945,0.61,5.878,1.808,8.721l-0.041,0.096l0.06,0.141
		c0.164,0.378,0.339,0.755,0.533,1.148c0.038,0.075,0.075,0.146,0.113,0.221l-4.037,7.001l0.832,0.48l3.74-6.487
		c2.103,3.698,4.686,5.98,5.907,5.98c1.24,0,3.848-2.32,5.962-6.077l3.776,6.53l0.832-0.48l-4.078-7.053
		C46.007,50.778,46.051,50.701,46.091,50.619 M40.289,24.377c1.132,0.709,2.981,2.565,4.636,5.573
		c0.178,0.324,0.352,0.659,0.518,0.999c0.154,0.312,0.298,0.624,0.433,0.932c-1.203,2.855-1.812,5.802-1.812,8.759
		s0.609,5.903,1.812,8.758c-0.129,0.296-0.269,0.596-0.422,0.91c-0.165,0.34-0.339,0.675-0.517,0.998
		c-1.617,2.946-3.421,4.793-4.562,5.543l-0.546,0.295c-0.14,0.059-0.26,0.087-0.354,0.087c-0.084,0-0.191-0.025-0.312-0.072
		l-0.527-0.272c-1.122-0.715-2.931-2.535-4.559-5.463c-0.175-0.312-0.35-0.646-0.521-0.991c-0.166-0.335-0.315-0.656-0.457-0.978
		c1.22-2.871,1.838-5.836,1.838-8.814s-0.618-5.944-1.838-8.816c0.14-0.316,0.289-0.635,0.455-0.971
		c0.169-0.342,0.344-0.676,0.52-0.992c1.675-3.012,3.539-4.851,4.652-5.521l0.438-0.221c0.121-0.046,0.229-0.072,0.312-0.072
		c0.095,0,0.215,0.03,0.354,0.087L40.289,24.377z"/>
</g>
</svg>
