<?xml version="1.0" encoding="utf-8"?>
<!DOCTYPE svg PUBLIC "-//W3C//DTD SVG 1.0//EN" "http://www.w3.org/TR/2001/REC-SVG-20010904/DTD/svg10.dtd" [
	<!ENTITY st0 "fill:#333333;">
	<!ENTITY st1 "opacity:0.21;fill:#333333;">
]>
<svg version="1.0" id="Layer_1" xmlns="http://www.w3.org/2000/svg" xmlns:xlink="http://www.w3.org/1999/xlink" x="0px" y="0px"
	 width="100%" height="100%" viewBox="0 0 80 80" style="enable-background:new 0 0 80 80;" xml:space="preserve">
<path style="&st1;" d="M24.5,32.215c2.525,0,4.571-2.047,4.571-4.571c0-2.521-2.04-4.565-4.56-4.571
	c-1.755,1.611-3.263,3.486-4.469,5.559C20.495,30.68,22.315,32.215,24.5,32.215z M58.762,35.143l4.314-1.726
	c-0.42-1.335-0.959-2.617-1.597-3.839l-8.812,2.518l-6.833-1.952v-0.977l-1.708,0.488L31.333,26v3.048l6.216,2.486L24.5,35.263
	l-6.567-1.876c-0.442,1.402-0.754,2.861-0.931,4.363l1.402,0.561v10.643c0.936,2.44,2.26,4.688,3.903,6.662L24.5,50.5l4.596,10.724
	c1.614,0.892,3.344,1.597,5.161,2.094L30.595,50.5V38.31l11.948-4.778l4.029,1.611v12.19l-4.799,16.795
	c1.345-0.074,2.657-0.265,3.933-0.553l6.961-16.242l4.331,10.105c1.304-1.269,2.459-2.688,3.443-4.228l-1.68-5.878V35.143z
	 M52.667,29.048c2.524,0,4.571-2.047,4.571-4.571c0-0.261-0.035-0.513-0.077-0.762c-1.473-1.462-3.139-2.728-4.952-3.764
	c-2.307,0.233-4.113,2.158-4.113,4.526C48.096,27.001,50.143,29.048,52.667,29.048z"/>
<path style="&st0;" d="M11.165,40.5c0.002-16.203,13.132-29.334,29.334-29.336l0,0C56.702,11.166,69.832,24.297,69.834,40.5l0,0
	c-0.002,16.201-13.132,29.332-29.335,29.335l0,0C24.296,69.832,11.167,56.701,11.165,40.5L11.165,40.5z M16.834,40.5
	c0.022,13.066,10.595,23.641,23.665,23.665l0,0C53.568,64.141,64.143,53.566,64.164,40.5l0,0
	c-0.021-13.069-10.596-23.643-23.665-23.666l0,0C27.43,16.857,16.857,27.431,16.834,40.5L16.834,40.5z"/>
<path style="&st0;" d="M61.667,35.548V32.5l-21.333,6.096L19,32.5v3.048l15.238,6.095v12.19l-3.124,10.936
	c1.293,0.501,2.635,0.906,4.019,1.198l5.2-12.134l5.226,12.195c1.386-0.274,2.73-0.658,4.026-1.143l-3.157-11.053v-12.19
	L61.667,35.548z M40.333,35.548c2.525,0,4.571-2.047,4.571-4.571c0-2.525-2.046-4.572-4.571-4.572s-4.571,2.047-4.571,4.572
	C35.762,33.501,37.809,35.548,40.333,35.548z"/>
</svg>