	<?xml version="1.0" encoding="utf-8"?>
<!DOCTYPE svg PUBLIC "-//W3C//DTD SVG 1.0//EN" "http://www.w3.org/TR/2001/REC-SVG-20010904/DTD/svg10.dtd" [
	<!ENTITY st0 "fill:#333333;">
]>
<svg version="1.0" id="Layer_1" xmlns="http://www.w3.org/2000/svg" xmlns:xlink="http://www.w3.org/1999/xlink" x="0px" y="0px"
	 width="100%" height="100%" viewBox="0 0 80 80" style="enable-background:new 0 0 80 80;" xml:space="preserve">
<path style="&st0;" d="M10.166,39.5C10.167,23.297,23.297,10.167,39.5,10.165l0,0C55.703,10.167,68.832,23.297,68.834,39.5l0,0
	C68.832,55.701,55.703,68.832,39.5,68.836l0,0C23.296,68.832,10.167,55.701,10.166,39.5L10.166,39.5z M15.834,39.5
	C15.857,52.566,26.43,63.141,39.5,63.166l0,0c13.068-0.025,23.643-10.6,23.665-23.666l0,0C63.143,26.432,52.568,15.858,39.5,15.834
	l0,0C26.431,15.858,15.858,26.432,15.834,39.5L15.834,39.5z"/>
<path style="&st0;" d="M27.599,22.05c-2.841,0-5.145,2.304-5.145,5.145s2.304,5.145,5.145,5.145c2.841,0,5.145-2.304,5.145-5.145
	S30.44,22.05,27.599,22.05z M29.207,24.355c0.251,0,0.455,0.407,0.455,0.909c0,0.503-0.204,0.91-0.455,0.91s-0.455-0.407-0.455-0.91
	C28.752,24.763,28.956,24.355,29.207,24.355z M25.992,24.355c0.251,0,0.455,0.407,0.455,0.909c0,0.503-0.204,0.91-0.455,0.91
	s-0.455-0.407-0.455-0.91C25.537,24.763,25.741,24.355,25.992,24.355z M27.599,30.41c-1.677,0-3.069-1.406-3.215-3.198
	c0.942,0.543,2.051,0.854,3.215,0.854c1.165,0,2.273-0.31,3.216-0.854C30.668,29.006,29.276,30.41,27.599,30.41z"/>
<rect x="35.314" y="24.766" style="&st0;" width="20.16" height="4.857"/>
<path style="&st0;" d="M27.599,33.958c-2.841,0-5.145,2.304-5.145,5.145s2.304,5.145,5.145,5.145c2.841,0,5.145-2.304,5.145-5.145
	S30.44,33.958,27.599,33.958z M29.207,36.264c0.251,0,0.455,0.407,0.455,0.909c0,0.503-0.204,0.91-0.455,0.91
	s-0.455-0.407-0.455-0.91C28.752,36.671,28.956,36.264,29.207,36.264z M25.992,36.264c0.251,0,0.455,0.407,0.455,0.909
	c0,0.503-0.204,0.91-0.455,0.91s-0.455-0.407-0.455-0.91C25.537,36.671,25.741,36.264,25.992,36.264z M27.599,42.318
	c-1.677,0-3.069-1.406-3.215-3.198c0.942,0.543,2.051,0.854,3.215,0.854c1.165,0,2.273-0.31,3.216-0.854
	C30.668,40.914,29.276,42.318,27.599,42.318z"/>
<rect x="35.314" y="36.674" style="&st0;" width="20.16" height="4.857"/>
<path style="&st0;" d="M27.599,45.859c-2.841,0-5.145,2.304-5.145,5.145s2.304,5.145,5.145,5.145c2.841,0,5.145-2.304,5.145-5.145
	S30.44,45.859,27.599,45.859z M29.207,48.165c0.251,0,0.455,0.407,0.455,0.909c0,0.503-0.204,0.91-0.455,0.91
	s-0.455-0.407-0.455-0.91C28.752,48.572,28.956,48.165,29.207,48.165z M25.992,48.165c0.251,0,0.455,0.407,0.455,0.909
	c0,0.503-0.204,0.91-0.455,0.91s-0.455-0.407-0.455-0.91C25.537,48.572,25.741,48.165,25.992,48.165z M27.599,54.22
	c-1.677,0-3.069-1.406-3.215-3.198c0.942,0.543,2.051,0.854,3.215,0.854c1.165,0,2.273-0.31,3.216-0.854
	C30.668,52.815,29.276,54.22,27.599,54.22z"/>
<rect x="35.314" y="48.575" style="&st0;" width="20.16" height="4.857"/>
</svg>
