<?xml version="1.0" encoding="utf-8"?>
<!DOCTYPE svg PUBLIC "-//W3C//DTD SVG 1.0//EN" "http://www.w3.org/TR/2001/REC-SVG-20010904/DTD/svg10.dtd" [
	<!ENTITY st0 "fill:#333333;">
]>
<svg version="1.0" id="Layer_1" xmlns="http://www.w3.org/2000/svg" xmlns:xlink="http://www.w3.org/1999/xlink" x="0px" y="0px"
	 width="100%" height="100%" viewBox="0 0 80 80" style="enable-background:new 0 0 80 80;" xml:space="preserve">
<path style="&st0;" d="M11.164,40.5c0.003-16.203,13.133-29.334,29.335-29.336l0,0C56.702,11.166,69.832,24.297,69.834,40.5l0,0
	c-0.002,16.201-13.132,29.332-29.335,29.335l0,0C24.297,69.832,11.167,56.701,11.164,40.5L11.164,40.5z M16.834,40.5
	c0.023,13.067,10.596,23.641,23.665,23.665l0,0C53.568,64.141,64.142,53.567,64.164,40.5l0,0
	c-0.022-13.069-10.596-23.642-23.665-23.667l0,0C27.43,16.858,16.857,27.431,16.834,40.5L16.834,40.5z"/>
<path style="&st0;" d="M53.324,28.375c0.564-3.922-2.127-4.589-2.324-7.749c0.033-0.825-0.365-1.969-0.774-0.775
	c0.513,3.68-1.896,4.899-2.325,6.975c-0.252,1.213,0.354,2.692,0,3.875c-0.318,1.062-1.149,1.353-1.55,2.325
	c-2.203,5.341,2.005,11.146-0.775,17.05c-1.835-1.27-3.291,0.173-4.65,0c-0.228-0.028-0.057-1.446-0.774-1.55
	c-0.084-0.012-0.72,1.393-1.55,0.775c-0.357-2.723,0.808-11.769-0.775-10.076c0.16,2.227-0.197,3.937-1.55,4.65
	c-1.928-1.172,0.475-6.675-1.55-7.75c-0.58,3.554,0.154,8.423-4.65,7.75c-0.092-1.288,0.424-7.019-0.775-4.65
	c-0.809,3.583,2.018,10.801-2.325,10.85c-0.49-2.609,1-7.198-0.774-8.524c-0.013,2.055,0.43,4.562-1.55,4.649
	c-0.612-3.146,0.83-5.399-1.551-5.425c-0.563,1.76,1.396,6.047-1.55,5.425c-2.104,0.554,0.555-3.654-1.55-3.1v18.373
	c4.809,4.701,11.227,7.757,18.352,8.274c2.822-0.89,6.24-1.137,9.505-0.845c3.366-0.87,6.494-2.325,9.277-4.245
	c-0.244-10.804-0.946-20,0.065-30.858C55.801,32.099,54.177,30.624,53.324,28.375z M47.9,40.775c-2.995-3.242,1.407-7.644,4.65-4.65
	C52.96,39.636,51.409,41.186,47.9,40.775z"/>
</svg>
