<?xml version="1.0" encoding="utf-8"?>
<!-- Generator: Adobe Illustrator 13.0.0, SVG Export Plug-In . SVG Version: 6.00 Build 14948)  -->
<!DOCTYPE svg PUBLIC "-//W3C//DTD SVG 1.0//EN" "http://www.w3.org/TR/2001/REC-SVG-20010904/DTD/svg10.dtd" [
	<!ENTITY st0 "opacity:0.2;fill:#333333;">
	<!ENTITY st1 "fill:#333333;">
]>
<svg version="1.0" id="Layer_1" xmlns="http://www.w3.org/2000/svg" xmlns:xlink="http://www.w3.org/1999/xlink" x="0px" y="0px"
	 width="80px" height="80px" viewBox="0 0 80 80" style="enable-background:new 0 0 80 80;" xml:space="preserve">
<path style="&st1;" d="M10.166,39.5C10.167,23.297,23.297,10.167,39.5,10.165l0,0C55.703,10.167,68.832,23.297,68.834,39.5l0,0
	C68.832,55.701,55.703,68.832,39.5,68.836l0,0C23.296,68.832,10.167,55.701,10.166,39.5L10.166,39.5z M15.834,39.5
	C15.857,52.566,26.43,63.141,39.5,63.166l0,0c13.069-0.025,23.643-10.6,23.665-23.666l0,0C63.143,26.432,52.568,15.858,39.5,15.834
	l0,0C26.431,15.858,15.858,26.432,15.834,39.5L15.834,39.5z"/>
<g id="Layer_3">
	<path style="&st1;" d="M39.5,28.442c-6.107,0-11.058,4.95-11.058,11.058s4.95,11.058,11.058,11.058s11.058-4.95,11.058-11.058
		S45.607,28.442,39.5,28.442z M39.5,31.207c1.526,0,2.765,1.237,2.765,2.765c0,1.526-1.238,2.764-2.765,2.764
		s-2.765-1.237-2.765-2.764C36.735,32.444,37.974,31.207,39.5,31.207z M43.647,47.794h-8.294v-1.383h1.382V39.5h-1.382v-1.382h6.911
		v8.293h1.383V47.794z"/>
</g>
<path style="&st0;" d="M59.747,37.284c0.121-0.546,0.185-1.113,0.185-1.696c0-4.347-3.524-7.869-7.872-7.869
	c-0.697,0-1.376,0.092-2.021,0.263c-1.22-3.804-4.786-6.559-8.994-6.559c-4.296,0-7.922,2.869-9.066,6.796
	c-1.119-0.326-2.301-0.5-3.525-0.5c-6.953,0-12.591,5.638-12.591,12.591c0,6.955,5.638,12.591,12.591,12.591h29.904
	c4.347,0,7.868-3.523,7.868-7.871C66.226,41.159,63.431,37.941,59.747,37.284z M39.5,50.558c-6.107,0-11.058-4.95-11.058-11.058
	s4.95-11.058,11.058-11.058s11.058,4.95,11.058,11.058S45.607,50.558,39.5,50.558z"/>
</svg>
