<?xml version="1.0" encoding="utf-8"?>
<!-- Generator: Adobe Illustrator 13.0.0, SVG Export Plug-In . SVG Version: 6.00 Build 14948)  -->
<!DOCTYPE svg PUBLIC "-//W3C//DTD SVG 1.0//EN" "http://www.w3.org/TR/2001/REC-SVG-20010904/DTD/svg10.dtd" [
	<!ENTITY st0 "fill:#333333;">
	<!ENTITY st1 "opacity:0.1;fill:#333333;">
]>
<svg version="1.0" id="Layer_1" xmlns="http://www.w3.org/2000/svg" xmlns:xlink="http://www.w3.org/1999/xlink" x="0px" y="0px"
	 width="80px" height="80px" viewBox="0 0 80 80" style="enable-background:new 0 0 80 80;" xml:space="preserve">
<polygon style="&st1;" points="16.827,29.792 65.449,45.306 58.04,58.734 42.063,66.375 25.394,61.744 15.669,52.021 13.816,36.739 
	"/>
<path style="&st0;" d="M11.165,40.5c0.002-16.203,13.132-29.334,29.334-29.336l0,0C56.702,11.166,69.832,24.297,69.834,40.5l0,0
	c-0.002,16.201-13.132,29.332-29.335,29.335l0,0C24.296,69.832,11.167,56.701,11.165,40.5L11.165,40.5z M16.834,40.5
	c0.022,13.066,10.595,23.641,23.665,23.665l0,0C53.568,64.141,64.143,53.566,64.164,40.5l0,0
	c-0.021-13.069-10.596-23.643-23.665-23.666l0,0C27.43,16.857,16.857,27.431,16.834,40.5L16.834,40.5z"/>
<g id="Layer_1_2_">
	<path style="&st0;" d="M27.438,52.141"/>
	<g>
		<path style="&st0;" d="M34.422,36.777c0,6.983-4.19,12.571-6.983,15.364l0.904,0.904l6.986-6.977
			c-0.133-0.274-0.208-0.585-0.208-0.912c0-1.156,0.938-2.094,2.096-2.094s2.095,0.938,2.095,2.094c0,1.158-0.938,2.096-2.095,2.096
			c-0.32,0-0.623-0.072-0.894-0.2l-6.992,6.98l0.901,0.901c2.794-2.793,8.381-6.982,15.364-6.982l1.397-6.984l-5.588-5.587
			L34.422,36.777z"/>
		
			<rect x="45.307" y="32.128" transform="matrix(0.7071 -0.7071 0.7071 0.7071 -11.9516 43.3021)" style="&st0;" width="1.975" height="7.901"/>
	</g>
</g>
<polygon style="&st0;" points="49.786,38.173 64.754,30.719 52.715,17.753 44.199,32.586 "/>
</svg>
